<svg version="1.1" id="Layer_1" xmlns="http://www.w3.org/2000/svg" xmlns:xlink="http://www.w3.org/1999/xlink" x="0px" y="0px"
	 width="100%" viewBox="0 0 1000 704" enable-background="new 0 0 1000 704" xml:space="preserve">
<path fill="#000000" opacity="1.000000" stroke="none" 
	d="
M642.000000,705.000000 
	C535.642578,705.000000 429.285187,705.000000 322.544037,704.668579 
	C322.744873,703.766724 323.234070,703.011230 323.928253,702.653442 
	C335.567810,696.653931 340.584381,686.316956 340.797180,674.044983 
	C341.279510,646.227356 340.937958,618.395935 341.009247,590.570251 
	C341.018341,587.022888 339.337128,585.903992 336.083191,585.988525 
	C331.920563,586.096680 327.752747,585.993896 323.587219,586.003113 
	C316.031525,586.019897 316.008698,586.026428 316.005005,593.397400 
	C315.993286,616.724670 316.039581,640.052002 315.960541,663.379028 
	C315.947662,667.183289 315.602234,671.012085 315.079041,674.783569 
	C314.058868,682.137085 311.054749,684.909058 304.215881,685.236938 
	C296.316132,685.615601 292.736786,683.328613 291.099426,676.034424 
	C290.051514,671.365967 290.068481,666.456238 288.986420,661.799011 
	C288.639648,660.306702 286.385681,658.340149 284.862061,658.206055 
	C279.736511,657.754944 274.545258,658.109314 269.382324,658.003052 
	C265.710846,657.927429 264.777405,659.866943 265.123413,663.080383 
	C265.478668,666.379700 265.576233,669.714600 266.080444,672.988708 
	C267.945831,685.101074 270.907440,696.616943 283.212341,702.776245 
	C283.985535,703.163269 284.412140,704.242737 285.000000,705.000000 
	C190.439774,705.000000 95.879539,705.000000 1.000000,705.000000 
	C1.000000,672.976624 1.000000,640.952148 1.468657,608.463867 
	C12.939795,608.029236 23.942276,608.058533 34.959476,608.550476 
	C34.982800,611.679199 34.998558,614.345276 34.998890,617.011353 
	C35.002235,643.672668 35.080765,670.334351 34.929497,696.994812 
	C34.903725,701.537048 36.397907,703.363037 40.985184,703.054565 
	C45.132160,702.775635 49.312878,703.008179 53.478668,702.997192 
	C60.970371,702.977417 60.987328,702.971802 60.996304,695.535950 
	C61.031509,666.375610 61.055065,637.215271 61.545952,608.033020 
	C73.233772,608.011108 84.458595,608.011108 95.584404,608.011108 
	C95.584404,600.252502 95.584404,593.221680 95.584404,586.000000 
	C63.779507,586.000000 32.389755,586.000000 1.000000,586.000000 
	C1.000000,391.036530 1.000000,196.073059 1.000000,1.054796 
	C334.234344,1.054796 667.468689,1.054796 1001.000000,1.054796 
	C1001.000000,232.690674 1001.000000,464.381470 1000.666382,696.429016 
	C999.601562,695.518372 998.653320,694.328064 998.171692,692.972107 
	C990.266785,670.714111 982.440186,648.428406 974.553650,626.163879 
	C970.332886,614.248291 965.957703,602.386902 961.813782,590.444946 
	C960.634399,587.046082 958.576050,585.855164 955.098450,585.957642 
	C948.939819,586.139282 942.769409,586.120605 936.609253,585.968201 
	C933.313171,585.886658 931.418701,587.042114 930.329895,590.287292 
	C927.685486,598.169434 924.728027,605.946228 921.925598,613.775818 
	C913.742126,636.639771 905.553955,659.502075 897.409973,682.380066 
	C895.092896,688.889160 892.920471,695.449646 890.391907,702.832703 
	C899.144531,702.832703 906.918091,702.968506 914.676147,702.683594 
	C915.813599,702.641724 917.414124,700.788208 917.884399,699.450867 
	C920.144653,693.023315 922.090393,686.485168 924.604614,679.991943 
	C938.995422,679.997925 952.929443,679.998169 966.959778,680.369019 
	C968.972290,686.749817 970.989441,692.730408 972.762146,698.782654 
	C973.657104,701.838196 975.412048,703.062683 978.550659,703.018433 
	C986.032410,702.912720 993.516724,702.994141 1001.000000,703.000000 
	C1000.667969,703.666626 1000.454834,704.783813 999.980042,704.908997 
	C998.890686,705.196289 997.673828,705.000000 996.508728,705.000000 
	C892.981750,705.000000 789.454712,705.000000 685.563599,704.671387 
	C685.539612,703.988708 685.814636,703.462646 686.229370,703.305481 
	C703.073975,696.919250 710.261536,683.546326 710.722900,666.724854 
	C711.421631,641.251221 710.931030,615.745300 710.980347,590.253174 
	C710.986023,587.330444 709.703064,585.987793 706.765869,586.019104 
	C701.934631,586.070618 697.102234,585.993774 692.270386,586.005432 
	C685.037720,586.022888 685.010864,586.035583 685.005920,593.214294 
	C684.989685,616.874512 685.066772,640.535034 684.960754,664.194824 
	C684.908569,675.831238 679.071411,682.732483 668.059143,684.731995 
	C655.743408,686.968201 645.721741,681.205566 643.381287,670.230530 
	C642.520630,666.194458 642.084839,661.994690 642.060059,657.865906 
	C641.931946,636.539185 642.004944,615.211182 641.997009,593.883667 
	C641.994019,586.015869 641.980469,586.013306 633.899414,586.001404 
	C630.067139,585.995728 626.210266,586.276123 622.408508,585.935974 
	C617.245239,585.474060 615.821655,587.658813 615.921082,592.584167 
	C616.434875,618.045532 616.277771,643.526489 617.173157,668.971863 
	C617.700073,683.944458 624.504150,695.709900 638.831177,702.171875 
	C640.062195,702.727112 640.951782,704.039429 642.000000,705.000000 
M201.892868,680.656860 
	C203.739136,686.702637 205.651398,692.729370 207.403793,698.802246 
	C208.278320,701.833008 210.064026,703.092346 213.222992,703.020813 
	C219.218842,702.885193 225.221283,702.911133 231.218552,703.012817 
	C235.208435,703.080444 236.077118,701.830139 234.608170,697.904358 
	C230.060730,685.751282 225.893799,673.455688 221.583359,661.213989 
	C213.294128,637.672424 204.988693,614.136414 196.745895,590.578613 
	C195.783066,587.826843 194.563065,585.912170 191.187714,585.983826 
	C184.192184,586.132446 177.176178,585.779663 170.203232,586.203186 
	C168.465820,586.308655 166.017151,588.243286 165.337036,589.921448 
	C162.027405,598.087769 159.185272,606.444641 156.217987,614.748535 
	C147.876175,638.092834 139.533264,661.436890 131.239273,684.798218 
	C129.211914,690.508606 127.370384,696.285034 125.151718,702.900879 
	C133.783585,702.900879 141.405487,703.032349 149.013351,702.765076 
	C150.212296,702.723022 151.942719,701.097229 152.412842,699.827881 
	C154.836304,693.284424 156.929092,686.618530 160.052460,679.999695 
	C173.934738,679.958496 187.817032,679.917236 201.892868,680.656860 
M613.984985,88.017876 
	C659.858826,88.017876 705.732727,88.017876 751.631226,88.017876 
	C751.631226,59.336037 751.631226,31.318178 751.631226,3.000284 
	C749.951355,3.000284 748.639282,2.999014 747.327209,3.000468 
	C702.222290,3.050440 657.117310,3.100670 611.079956,3.074999 
	C583.715820,3.100279 556.351746,3.125558 528.058655,3.030512 
	C435.471832,3.030512 342.885010,3.030512 250.279083,3.030512 
	C250.279083,31.667442 250.279083,59.593258 250.279083,88.060890 
	C296.678589,88.060890 342.800690,88.060890 388.958984,88.989952 
	C388.955139,106.628441 388.951294,124.266922 388.021606,141.980972 
	C342.107635,141.980972 296.193665,141.980972 250.284210,141.980972 
	C250.284210,170.681854 250.284210,198.605698 250.284210,227.061005 
	C296.685486,227.061005 342.804230,227.061005 388.959015,227.990067 
	C388.972687,316.644318 388.986206,405.298553 389.001007,493.952820 
	C389.001312,495.785828 389.085846,497.621643 389.010162,499.451172 
	C388.880859,502.577484 390.232819,504.001251 393.439362,503.995728 
	C418.768951,503.952271 444.098633,503.954865 469.428223,503.999664 
	C472.535583,504.005157 474.117767,502.809204 473.985321,499.583618 
	C473.910187,497.754150 473.998535,495.918304 473.998779,494.085327 
	C474.010712,404.764496 474.021057,315.443634 474.958832,226.024765 
	C492.634338,226.064774 510.309845,226.104797 527.992188,227.063950 
	C527.995239,317.036163 527.995422,407.008362 528.006897,496.980560 
	C528.007812,503.901886 528.095703,503.987305 534.964844,503.992340 
	C558.124390,504.009216 581.283875,504.002045 604.443420,503.998505 
	C612.988831,503.997223 612.998047,503.990204 612.998474,495.573242 
	C613.002869,405.767639 613.004211,315.962006 613.935303,226.031616 
	C659.816895,226.031616 705.698486,226.031616 751.641235,226.031616 
	C751.641235,197.693878 751.641235,170.007355 751.641235,142.000000 
	C749.142639,142.000000 747.000427,142.001862 744.858215,141.999725 
	C700.913757,141.956146 656.969360,141.912109 613.012146,140.947830 
	C613.027161,123.328033 613.042175,105.708237 613.984985,88.017876 
M521.251587,644.748413 
	C519.101440,653.934082 516.951355,663.119751 514.801208,672.305420 
	C513.448303,671.374207 513.159851,670.615356 512.978333,669.831726 
	C506.936981,643.747375 500.840179,617.675476 494.941040,591.558960 
	C494.009552,587.435303 492.217957,585.751099 487.861298,585.914978 
	C479.707031,586.221741 471.521271,586.268860 463.371490,585.907227 
	C458.162354,585.676086 456.850128,587.745117 456.913086,592.620789 
	C457.138977,610.115967 457.000305,627.615906 457.000092,645.114014 
	C456.999908,661.945557 456.991455,678.777039 457.004974,695.608582 
	C457.010895,702.973816 457.031677,702.977478 464.595276,702.997864 
	C467.928223,703.006836 471.286713,702.736145 474.588318,703.057556 
	C479.747559,703.559753 481.126556,701.340942 481.088104,696.418152 
	C480.893005,671.422424 480.999329,646.424255 481.000061,621.426941 
	C481.000122,619.706604 481.000092,617.986206 481.000092,616.265869 
	C482.241943,617.596497 482.668396,618.990845 482.984467,620.409851 
	C488.769318,646.380371 494.558472,672.349976 500.292938,698.331604 
	C501.000549,701.537720 502.457062,703.233276 506.060455,703.051636 
	C511.047150,702.800110 516.063599,702.822998 521.053223,703.045349 
	C524.899841,703.216797 526.756714,701.733826 527.575867,697.921143 
	C531.278503,680.687744 535.168030,663.494202 539.035156,646.296448 
	C541.359253,635.960876 543.765991,625.643921 546.135559,615.318604 
	C546.423706,615.370361 546.711853,615.422119 547.000000,615.473877 
	C547.000000,617.295105 546.999878,619.116272 546.999939,620.937439 
	C547.001343,646.268066 547.078491,671.599060 546.933105,696.928833 
	C546.907532,701.387695 548.246216,703.377563 552.920654,703.057312 
	C557.233398,702.761780 561.586182,702.872070 565.913635,703.022461 
	C569.472473,703.146118 571.033264,701.812500 571.026001,698.097595 
	C570.956482,662.434937 570.947937,626.771912 571.038879,591.109375 
	C571.049072,587.108765 569.360291,585.897949 565.621155,585.962708 
	C556.958008,586.112793 548.288330,586.125366 539.625854,585.959351 
	C535.956421,585.889099 534.269348,587.366882 533.488953,590.909180 
	C529.589111,608.610840 525.517822,626.274658 521.251587,644.748413 
M758.000000,662.500000 
	C758.004883,674.327698 758.081421,686.156128 757.971741,697.982727 
	C757.938293,701.594971 759.308289,703.146423 762.968750,703.023438 
	C767.627808,702.866821 772.308533,702.782532 776.957214,703.055237 
	C781.465210,703.319763 783.172974,701.679932 783.075256,697.054382 
	C782.836060,685.731689 783.079468,674.399658 782.971863,663.072876 
	C782.938049,659.508911 784.205200,657.903931 787.912659,657.973022 
	C795.739502,658.118896 803.574890,657.869629 811.399231,658.072266 
	C819.479797,658.281555 824.107910,662.428894 824.970276,670.419250 
	C825.628418,676.516357 825.595154,682.685059 826.035217,688.809998 
	C826.284546,692.279236 826.526367,695.820068 827.455200,699.137268 
	C827.875732,700.639282 829.908386,702.682739 831.297974,702.753784 
	C838.441467,703.118530 845.614685,702.993835 852.775208,702.884277 
	C855.409973,702.843994 856.802673,701.072510 855.031250,698.953369 
	C849.844482,692.748291 850.982117,685.458984 851.049805,678.397583 
	C851.163452,666.532898 851.300476,654.779663 839.011230,647.808655 
	C839.735229,647.029114 840.000366,646.498474 840.410583,646.337585 
	C853.952148,641.024963 856.991028,616.622192 851.303955,605.294678 
	C844.238586,591.221985 832.489319,586.259033 817.923401,586.064026 
	C800.101746,585.825378 782.272339,586.159302 764.451111,585.904480 
	C759.364990,585.831787 757.863464,587.553894 757.909058,592.533813 
	C758.119690,615.520874 758.000732,638.510986 758.000000,662.500000 
M410.699951,702.345703 
	C411.132965,700.136658 411.930878,697.929443 411.941956,695.718262 
	C412.040436,676.076538 412.001099,656.434143 411.999542,636.791931 
	C411.998322,621.644104 411.924469,606.495850 412.037994,591.348877 
	C412.066132,587.592896 410.850311,585.802490 406.869537,585.966064 
	C402.050415,586.164062 397.208374,586.188538 392.392212,585.956421 
	C388.183655,585.753662 386.884918,587.589966 386.950226,591.587646 
	C387.118744,601.905396 387.000366,612.227661 387.000427,622.548157 
	C387.000580,647.350647 387.054840,672.153320 386.951691,696.955322 
	C386.935059,700.947693 387.759430,703.316833 392.434570,703.047668 
	C398.240173,702.713440 404.069977,702.798523 410.699951,702.345703 
z"/>
<path fill="#021B45" opacity="1.000000" stroke="none" 
	d="
M642.468628,705.000000 
	C640.951782,704.039429 640.062195,702.727112 638.831177,702.171875 
	C624.504150,695.709900 617.700073,683.944458 617.173157,668.971863 
	C616.277771,643.526489 616.434875,618.045532 615.921082,592.584167 
	C615.821655,587.658813 617.245239,585.474060 622.408508,585.935974 
	C626.210266,586.276123 630.067139,585.995728 633.899414,586.001404 
	C641.980469,586.013306 641.994019,586.015869 641.997009,593.883667 
	C642.004944,615.211182 641.931946,636.539185 642.060059,657.865906 
	C642.084839,661.994690 642.520630,666.194458 643.381287,670.230530 
	C645.721741,681.205566 655.743408,686.968201 668.059143,684.731995 
	C679.071411,682.732483 684.908569,675.831238 684.960754,664.194824 
	C685.066772,640.535034 684.989685,616.874512 685.005920,593.214294 
	C685.010864,586.035583 685.037720,586.022888 692.270386,586.005432 
	C697.102234,585.993774 701.934631,586.070618 706.765869,586.019104 
	C709.703064,585.987793 710.986023,587.330444 710.980347,590.253174 
	C710.931030,615.745300 711.421631,641.251221 710.722900,666.724854 
	C710.261536,683.546326 703.073975,696.919250 686.229370,703.305481 
	C685.814636,703.462646 685.539612,703.988708 685.099731,704.671387 
	C670.979126,705.000000 656.958191,705.000000 642.468628,705.000000 
z"/>
<path fill="#021B45" opacity="1.000000" stroke="none" 
	d="
M1001.000000,702.571533 
	C993.516724,702.994141 986.032410,702.912720 978.550659,703.018433 
	C975.412048,703.062683 973.657104,701.838196 972.762146,698.782654 
	C970.989441,692.730408 968.972290,686.749817 967.029114,679.982178 
	C964.653381,672.445923 962.304688,665.667114 959.812500,658.559692 
	C955.205200,644.586792 950.741333,630.942566 946.277466,617.298340 
	C945.855652,617.265808 945.433777,617.233337 945.011902,617.200806 
	C940.674744,631.078247 936.337524,644.955627 931.657471,658.977417 
	C928.925659,666.076599 926.536682,673.031433 924.147827,679.986267 
	C922.090393,686.485168 920.144653,693.023315 917.884399,699.450867 
	C917.414124,700.788208 915.813599,702.641724 914.676147,702.683594 
	C906.918091,702.968506 899.144531,702.832703 890.391907,702.832703 
	C892.920471,695.449646 895.092896,688.889160 897.409973,682.380066 
	C905.553955,659.502075 913.742126,636.639771 921.925598,613.775818 
	C924.728027,605.946228 927.685486,598.169434 930.329895,590.287292 
	C931.418701,587.042114 933.313171,585.886658 936.609253,585.968201 
	C942.769409,586.120605 948.939819,586.139282 955.098450,585.957642 
	C958.576050,585.855164 960.634399,587.046082 961.813782,590.444946 
	C965.957703,602.386902 970.332886,614.248291 974.553650,626.163879 
	C982.440186,648.428406 990.266785,670.714111 998.171692,692.972107 
	C998.653320,694.328064 999.601562,695.518372 1000.666382,696.892883 
	C1001.000000,698.714355 1001.000000,700.428711 1001.000000,702.571533 
z"/>
<path fill="#021B45" opacity="1.000000" stroke="none" 
	d="
M285.468658,705.000000 
	C284.412140,704.242737 283.985535,703.163269 283.212341,702.776245 
	C270.907440,696.616943 267.945831,685.101074 266.080444,672.988708 
	C265.576233,669.714600 265.478668,666.379700 265.123413,663.080383 
	C264.777405,659.866943 265.710846,657.927429 269.382324,658.003052 
	C274.545258,658.109314 279.736511,657.754944 284.862061,658.206055 
	C286.385681,658.340149 288.639648,660.306702 288.986420,661.799011 
	C290.068481,666.456238 290.051514,671.365967 291.099426,676.034424 
	C292.736786,683.328613 296.316132,685.615601 304.215881,685.236938 
	C311.054749,684.909058 314.058868,682.137085 315.079041,674.783569 
	C315.602234,671.012085 315.947662,667.183289 315.960541,663.379028 
	C316.039581,640.052002 315.993286,616.724670 316.005005,593.397400 
	C316.008698,586.026428 316.031525,586.019897 323.587219,586.003113 
	C327.752747,585.993896 331.920563,586.096680 336.083191,585.988525 
	C339.337128,585.903992 341.018341,587.022888 341.009247,590.570251 
	C340.937958,618.395935 341.279510,646.227356 340.797180,674.044983 
	C340.584381,686.316956 335.567810,696.653931 323.928253,702.653442 
	C323.234070,703.011230 322.744873,703.766724 322.080139,704.668579 
	C309.979095,705.000000 297.958221,705.000000 285.468658,705.000000 
z"/>
<path fill="#DF0623" opacity="1.000000" stroke="none" 
	d="
M1.000000,586.468567 
	C32.389755,586.000000 63.779507,586.000000 95.584404,586.000000 
	C95.584404,593.221680 95.584404,600.252502 95.584404,608.011108 
	C84.458595,608.011108 73.233772,608.011108 61.219215,607.755615 
	C51.934566,607.696106 43.439659,607.891968 34.944756,608.087830 
	C23.942276,608.058533 12.939795,608.029236 1.468657,608.000000 
	C1.000000,600.979065 1.000000,593.958069 1.000000,586.468567 
z"/>
<path fill="#021B45" opacity="1.000000" stroke="none" 
	d="
M388.947449,141.905411 
	C388.951294,124.266922 388.955139,106.628441 389.261719,88.235245 
	C390.369293,87.322952 391.174011,87.028419 391.978973,87.027626 
	C418.112457,87.001846 444.246002,86.990021 470.379395,87.047462 
	C471.609558,87.050163 472.838287,87.706467 474.049316,88.522354 
	C474.038910,106.625961 474.046814,124.265610 473.778625,142.231186 
	C473.395905,143.210144 473.196625,143.863098 473.196136,144.516235 
	C473.175903,170.649109 473.163483,196.782028 473.205658,222.914841 
	C473.207397,223.984589 473.744141,225.053497 474.031616,226.122803 
	C474.021057,315.443634 474.010712,404.764496 473.998779,494.085327 
	C473.998535,495.918304 473.910187,497.754150 473.985321,499.583618 
	C474.117767,502.809204 472.535583,504.005157 469.428223,503.999664 
	C444.098633,503.954865 418.768951,503.952271 393.439362,503.995728 
	C390.232819,504.001251 388.880859,502.577484 389.010162,499.451172 
	C389.085846,497.621643 389.001312,495.785828 389.001007,493.952820 
	C388.986206,405.298553 388.972687,316.644318 389.168396,227.166824 
	C389.526733,225.536896 389.805115,224.730347 389.805878,223.923538 
	C389.830902,197.833694 389.841309,171.743820 389.793762,145.654037 
	C389.791473,144.403992 389.242065,143.154938 388.947449,141.905411 
z"/>
<path fill="#021B45" opacity="1.000000" stroke="none" 
	d="
M613.006348,226.156403 
	C613.004211,315.962006 613.002869,405.767639 612.998474,495.573242 
	C612.998047,503.990204 612.988831,503.997223 604.443420,503.998505 
	C581.283875,504.002045 558.124390,504.009216 534.964844,503.992340 
	C528.095703,503.987305 528.007812,503.901886 528.006897,496.980560 
	C527.995422,407.008362 527.995239,317.036163 528.449219,226.502594 
	C545.830505,225.905533 562.754822,225.822571 579.679077,225.850922 
	C590.788269,225.869537 601.897278,226.048981 613.006348,226.156403 
z"/>
<path fill="#DF0623" opacity="1.000000" stroke="none" 
	d="
M474.067688,88.058380 
	C472.838287,87.706467 471.609558,87.050163 470.379395,87.047462 
	C444.246002,86.990021 418.112457,87.001846 391.978973,87.027626 
	C391.174011,87.028419 390.369293,87.322952 389.243652,87.770714 
	C342.800690,88.060890 296.678589,88.060890 250.279083,88.060890 
	C250.279083,59.593258 250.279083,31.667442 250.279083,3.030512 
	C342.885010,3.030512 435.471832,3.030512 528.527832,3.546865 
	C528.998047,30.158754 529.021362,56.254345 528.953674,82.349701 
	C528.948730,84.251450 528.284241,86.151482 527.464783,88.031357 
	C509.358002,88.026398 491.712860,88.042389 474.067688,88.058380 
z"/>
<path fill="#DF0623" opacity="1.000000" stroke="none" 
	d="
M613.470825,226.094009 
	C601.897278,226.048981 590.788269,225.869537 579.679077,225.850922 
	C562.754822,225.822571 545.830505,225.905533 528.445801,226.043030 
	C510.309845,226.104797 492.634338,226.064774 474.495239,226.073792 
	C473.744141,225.053497 473.207397,223.984589 473.205658,222.914841 
	C473.163483,196.782028 473.175903,170.649109 473.196136,144.516235 
	C473.196625,143.863098 473.395905,143.210144 474.241272,142.269028 
	C492.639069,141.951828 510.298126,141.922729 528.402466,142.063751 
	C556.102112,142.302322 583.356445,142.375717 610.610779,142.415024 
	C611.415222,142.416183 612.220154,142.058533 613.024902,141.868164 
	C656.969360,141.912109 700.913757,141.956146 744.858215,141.999725 
	C747.000427,142.001862 749.142639,142.000000 751.641235,142.000000 
	C751.641235,170.007355 751.641235,197.693878 751.641235,226.031616 
	C705.698486,226.031616 659.816895,226.031616 613.470825,226.094009 
z"/>
<path fill="#DF0623" opacity="1.000000" stroke="none" 
	d="
M388.484528,141.943192 
	C389.242065,143.154938 389.791473,144.403992 389.793762,145.654037 
	C389.841309,171.743820 389.830902,197.833694 389.805878,223.923538 
	C389.805115,224.730347 389.526733,225.536896 389.150360,226.702301 
	C342.804230,227.061005 296.685486,227.061005 250.284210,227.061005 
	C250.284210,198.605698 250.284210,170.681854 250.284210,141.980972 
	C296.193665,141.980972 342.107635,141.980972 388.484528,141.943192 
z"/>
<path fill="#DF0623" opacity="1.000000" stroke="none" 
	d="
M612.012390,3.150863 
	C657.117310,3.100670 702.222290,3.050440 747.327209,3.000468 
	C748.639282,2.999014 749.951355,3.000284 751.631226,3.000284 
	C751.631226,31.318178 751.631226,59.336037 751.631226,88.017876 
	C705.732727,88.017876 659.858826,88.017876 613.233459,87.730621 
	C612.321350,85.806641 612.022278,84.170052 612.020752,82.533188 
	C611.995605,56.072437 612.008301,29.611645 612.012390,3.150863 
z"/>
<path fill="#021B45" opacity="1.000000" stroke="none" 
	d="
M611.546143,3.112931 
	C612.008301,29.611645 611.995605,56.072437 612.020752,82.533188 
	C612.022278,84.170052 612.321350,85.806641 612.769531,87.765900 
	C613.042175,105.708237 613.027161,123.328033 613.018555,141.408005 
	C612.220154,142.058533 611.415222,142.416183 610.610779,142.415024 
	C583.356445,142.375717 556.102112,142.302322 528.413452,141.602142 
	C527.961548,123.331070 527.943970,105.691689 527.926392,88.052315 
	C528.284241,86.151482 528.948730,84.251450 528.953674,82.349701 
	C529.021362,56.254345 528.998047,30.158754 528.992310,3.607029 
	C556.351746,3.125558 583.715820,3.100279 611.546143,3.112931 
z"/>
<path fill="#021B45" opacity="1.000000" stroke="none" 
	d="
M521.379150,644.350098 
	C525.517822,626.274658 529.589111,608.610840 533.488953,590.909180 
	C534.269348,587.366882 535.956421,585.889099 539.625854,585.959351 
	C548.288330,586.125366 556.958008,586.112793 565.621155,585.962708 
	C569.360291,585.897949 571.049072,587.108765 571.038879,591.109375 
	C570.947937,626.771912 570.956482,662.434937 571.026001,698.097595 
	C571.033264,701.812500 569.472473,703.146118 565.913635,703.022461 
	C561.586182,702.872070 557.233398,702.761780 552.920654,703.057312 
	C548.246216,703.377563 546.907532,701.387695 546.933105,696.928833 
	C547.078491,671.599060 547.001343,646.268066 546.999939,620.937439 
	C546.999878,619.116272 547.000000,617.295105 547.000000,615.473877 
	C546.711853,615.422119 546.423706,615.370361 546.135559,615.318604 
	C543.765991,625.643921 541.359253,635.960876 539.035156,646.296448 
	C535.168030,663.494202 531.278503,680.687744 527.575867,697.921143 
	C526.756714,701.733826 524.899841,703.216797 521.053223,703.045349 
	C516.063599,702.822998 511.047150,702.800110 506.060455,703.051636 
	C502.457062,703.233276 501.000549,701.537720 500.292938,698.331604 
	C494.558472,672.349976 488.769318,646.380371 482.984467,620.409851 
	C482.668396,618.990845 482.241943,617.596497 481.000092,616.265869 
	C481.000092,617.986206 481.000122,619.706604 481.000061,621.426941 
	C480.999329,646.424255 480.893005,671.422424 481.088104,696.418152 
	C481.126556,701.340942 479.747559,703.559753 474.588318,703.057556 
	C471.286713,702.736145 467.928223,703.006836 464.595276,702.997864 
	C457.031677,702.977478 457.010895,702.973816 457.004974,695.608582 
	C456.991455,678.777039 456.999908,661.945557 457.000092,645.114014 
	C457.000305,627.615906 457.138977,610.115967 456.913086,592.620789 
	C456.850128,587.745117 458.162354,585.676086 463.371490,585.907227 
	C471.521271,586.268860 479.707031,586.221741 487.861298,585.914978 
	C492.217957,585.751099 494.009552,587.435303 494.941040,591.558960 
	C500.840179,617.675476 506.936981,643.747375 512.978333,669.831726 
	C513.159851,670.615356 513.448303,671.374207 514.801208,672.305420 
	C516.951355,663.119751 519.101440,653.934082 521.379150,644.350098 
z"/>
<path fill="#021B45" opacity="1.000000" stroke="none" 
	d="
M758.000000,662.000000 
	C758.000732,638.510986 758.119690,615.520874 757.909058,592.533813 
	C757.863464,587.553894 759.364990,585.831787 764.451111,585.904480 
	C782.272339,586.159302 800.101746,585.825378 817.923401,586.064026 
	C832.489319,586.259033 844.238586,591.221985 851.303955,605.294678 
	C856.991028,616.622192 853.952148,641.024963 840.410583,646.337585 
	C840.000366,646.498474 839.735229,647.029114 839.011230,647.808655 
	C851.300476,654.779663 851.163452,666.532898 851.049805,678.397583 
	C850.982117,685.458984 849.844482,692.748291 855.031250,698.953369 
	C856.802673,701.072510 855.409973,702.843994 852.775208,702.884277 
	C845.614685,702.993835 838.441467,703.118530 831.297974,702.753784 
	C829.908386,702.682739 827.875732,700.639282 827.455200,699.137268 
	C826.526367,695.820068 826.284546,692.279236 826.035217,688.809998 
	C825.595154,682.685059 825.628418,676.516357 824.970276,670.419250 
	C824.107910,662.428894 819.479797,658.281555 811.399231,658.072266 
	C803.574890,657.869629 795.739502,658.118896 787.912659,657.973022 
	C784.205200,657.903931 782.938049,659.508911 782.971863,663.072876 
	C783.079468,674.399658 782.836060,685.731689 783.075256,697.054382 
	C783.172974,701.679932 781.465210,703.319763 776.957214,703.055237 
	C772.308533,702.782532 767.627808,702.866821 762.968750,703.023438 
	C759.308289,703.146423 757.938293,701.594971 757.971741,697.982727 
	C758.081421,686.156128 758.004883,674.327698 758.000000,662.000000 
M826.463013,631.776611 
	C832.460876,619.298645 828.040527,609.613220 814.621765,607.879089 
	C805.464050,606.695557 796.079712,607.260681 786.796326,607.058960 
	C783.600769,606.989563 783.001221,609.046082 783.011292,611.673157 
	C783.038696,618.819458 783.121277,625.968140 782.973999,633.111572 
	C782.897400,636.822388 784.533691,638.095764 788.077576,638.025818 
	C795.221313,637.884888 802.398743,638.366150 809.506836,637.841003 
	C815.325073,637.411011 821.651184,637.626465 826.463013,631.776611 
z"/>
<path fill="#021B45" opacity="1.000000" stroke="none" 
	d="
M159.137283,679.995361 
	C156.929092,686.618530 154.836304,693.284424 152.412842,699.827881 
	C151.942719,701.097229 150.212296,702.723022 149.013351,702.765076 
	C141.405487,703.032349 133.783585,702.900879 125.151718,702.900879 
	C127.370384,696.285034 129.211914,690.508606 131.239273,684.798218 
	C139.533264,661.436890 147.876175,638.092834 156.217987,614.748535 
	C159.185272,606.444641 162.027405,598.087769 165.337036,589.921448 
	C166.017151,588.243286 168.465820,586.308655 170.203232,586.203186 
	C177.176178,585.779663 184.192184,586.132446 191.187714,585.983826 
	C194.563065,585.912170 195.783066,587.826843 196.745895,590.578613 
	C204.988693,614.136414 213.294128,637.672424 221.583359,661.213989 
	C225.893799,673.455688 230.060730,685.751282 234.608170,697.904358 
	C236.077118,701.830139 235.208435,703.080444 231.218552,703.012817 
	C225.221283,702.911133 219.218842,702.885193 213.222992,703.020813 
	C210.064026,703.092346 208.278320,701.833008 207.403793,698.802246 
	C205.651398,692.729370 203.739136,686.702637 201.841507,679.895325 
	C199.193527,672.366760 196.596909,665.599792 193.968811,658.455994 
	C189.636963,644.284546 185.336563,630.489868 180.663391,615.499390 
	C175.463226,630.903259 170.743439,644.884155 165.725220,659.083984 
	C163.330292,666.200439 161.233795,673.097900 159.137283,679.995361 
z"/>
<path fill="#021B45" opacity="1.000000" stroke="none" 
	d="
M410.294617,702.524109 
	C404.069977,702.798523 398.240173,702.713440 392.434570,703.047668 
	C387.759430,703.316833 386.935059,700.947693 386.951691,696.955322 
	C387.054840,672.153320 387.000580,647.350647 387.000427,622.548157 
	C387.000366,612.227661 387.118744,601.905396 386.950226,591.587646 
	C386.884918,587.589966 388.183655,585.753662 392.392212,585.956421 
	C397.208374,586.188538 402.050415,586.164062 406.869537,585.966064 
	C410.850311,585.802490 412.066132,587.592896 412.037994,591.348877 
	C411.924469,606.495850 411.998322,621.644104 411.999542,636.791931 
	C412.001099,656.434143 412.040436,676.076538 411.941956,695.718262 
	C411.930878,697.929443 411.132965,700.136658 410.294617,702.524109 
z"/>
<path fill="#021B45" opacity="1.000000" stroke="none" 
	d="
M34.959476,608.550476 
	C43.439659,607.891968 51.934566,607.696106 60.756210,607.777588 
	C61.055065,637.215271 61.031509,666.375610 60.996304,695.535950 
	C60.987328,702.971802 60.970371,702.977417 53.478668,702.997192 
	C49.312878,703.008179 45.132160,702.775635 40.985184,703.054565 
	C36.397907,703.363037 34.903725,701.537048 34.929497,696.994812 
	C35.080765,670.334351 35.002235,643.672668 34.998890,617.011353 
	C34.998558,614.345276 34.982800,611.679199 34.959476,608.550476 
z"/>
<path fill="#DE0623" opacity="1.000000" stroke="none" 
	d="
M159.594879,679.997559 
	C161.233795,673.097900 163.330292,666.200439 166.189575,659.137451 
	C175.968338,658.925476 184.984299,658.879150 194.000275,658.832764 
	C196.596909,665.599792 199.193527,672.366760 201.744720,679.504883 
	C187.817032,679.917236 173.934738,679.958496 159.594879,679.997559 
z"/>
<path fill="#DF0623" opacity="1.000000" stroke="none" 
	d="
M924.604614,679.991943 
	C926.536682,673.031433 928.925659,666.076599 932.122009,659.043640 
	C941.938232,658.939758 950.947144,658.914062 959.955994,658.888306 
	C962.304688,665.667114 964.653381,672.445923 966.932739,679.611572 
	C952.929443,679.998169 938.995422,679.997925 924.604614,679.991943 
z"/>
<path fill="#000000" opacity="1.000000" stroke="none" 
	d="
M959.812500,658.559692 
	C950.947144,658.914062 941.938232,658.939758 932.464844,658.899292 
	C936.337524,644.955627 940.674744,631.078247 945.011902,617.200806 
	C945.433777,617.233337 945.855652,617.265808 946.277466,617.298340 
	C950.741333,630.942566 955.205200,644.586792 959.812500,658.559692 
z"/>
<path fill="#000000" opacity="1.000000" stroke="none" 
	d="
M527.464783,88.031357 
	C527.943970,105.691689 527.961548,123.331070 527.968140,141.432037 
	C510.298126,141.922729 492.639069,141.951828 474.517395,141.943100 
	C474.046814,124.265610 474.038910,106.625961 474.049316,88.522346 
	C491.712860,88.042389 509.358002,88.026398 527.464783,88.031357 
z"/>
<path fill="#000000" opacity="1.000000" stroke="none" 
	d="
M826.227600,632.073914 
	C821.651184,637.626465 815.325073,637.411011 809.506836,637.841003 
	C802.398743,638.366150 795.221313,637.884888 788.077576,638.025818 
	C784.533691,638.095764 782.897400,636.822388 782.973999,633.111572 
	C783.121277,625.968140 783.038696,618.819458 783.011292,611.673157 
	C783.001221,609.046082 783.600769,606.989563 786.796326,607.058960 
	C796.079712,607.260681 805.464050,606.695557 814.621765,607.879089 
	C828.040527,609.613220 832.460876,619.298645 826.227600,632.073914 
z"/>
<path fill="#000000" opacity="1.000000" stroke="none" 
	d="
M193.968811,658.456055 
	C184.984299,658.879150 175.968338,658.925476 166.488007,658.918457 
	C170.743439,644.884155 175.463226,630.903259 180.663391,615.499390 
	C185.336563,630.489868 189.636963,644.284546 193.968811,658.456055 
z"/>
</svg>