<svg version="1.1" id="Layer_1" xmlns="http://www.w3.org/2000/svg" xmlns:xlink="http://www.w3.org/1999/xlink" x="0px" y="0px"
	 width="100%" viewBox="0 0 1000 1000" enable-background="new 0 0 1000 1000" xml:space="preserve">
<path fill="#FFFFFF" opacity="1.000000" stroke="none" 
	d="
M1001.000000,446.000000 
	C1001.000000,630.904419 1001.000000,815.808899 1001.000000,1001.000000 
	C908.643555,1001.000000 816.286804,1001.000000 723.673950,1000.572021 
	C723.442505,997.978210 723.488525,995.812378 723.488586,993.646484 
	C723.495239,811.153198 723.498352,628.659912 723.935486,446.107574 
	C816.579468,446.032349 908.789734,446.016174 1001.000000,446.000000 
z"/>
<path fill="#FFFFFF" opacity="1.000000" stroke="none" 
	d="
M279.000000,1001.000000 
	C186.381195,1001.000000 93.762375,1001.000000 1.000000,1001.000000 
	C1.000000,816.310059 1.000000,631.620056 1.464138,446.535400 
	C93.875526,446.129883 185.822769,446.118958 277.848145,446.343842 
	C278.097290,446.904083 278.365997,447.073059 278.777466,447.545685 
	C278.826294,630.342285 278.829590,812.679749 278.840759,995.017273 
	C278.840881,997.011536 278.944611,999.005737 279.000000,1001.000000 
z"/>
<path fill="#011945" opacity="1.000000" stroke="none" 
	d="
M279.466980,1001.000000 
	C278.944611,999.005737 278.840881,997.011536 278.840759,995.017273 
	C278.829590,812.679749 278.826294,630.342285 278.852051,447.255859 
	C278.830597,446.313721 278.779510,446.120483 278.776917,445.465942 
	C278.837036,430.673889 278.868011,416.343109 278.856598,402.012390 
	C278.824310,361.354553 278.774719,320.696747 278.805176,279.757996 
	C278.830475,279.289612 278.782562,279.102142 278.779236,278.453430 
	C278.790131,241.684937 278.756439,205.377640 278.994781,168.714508 
	C279.748932,168.248398 280.231049,168.041550 280.713165,168.041580 
	C335.447357,168.044113 390.181580,168.061813 444.915771,168.085632 
	C445.244324,168.085770 445.572845,168.183563 445.883606,168.686951 
	C445.855042,186.286209 445.811279,203.434326 445.842255,220.582306 
	C445.877411,240.054459 445.979492,259.526520 445.972412,279.461609 
	C445.878967,332.342621 445.865753,384.760590 445.851685,437.178589 
	C445.850891,440.172424 445.843475,443.166260 445.837677,446.615082 
	C445.835419,630.050842 445.834137,813.031677 445.840607,996.012451 
	C445.840668,997.674988 445.944580,999.337463 446.000000,1001.000000 
	C390.644653,1001.000000 335.289307,1001.000000 279.466980,1001.000000 
z"/>
<path fill="#DF0623" opacity="1.000000" stroke="none" 
	d="
M445.839111,446.160095 
	C445.843475,443.166260 445.850891,440.172424 445.851685,437.178589 
	C445.865753,384.760590 445.878967,332.342621 446.437195,279.461578 
	C483.320709,278.944214 519.659363,278.889893 556.462158,278.902557 
	C594.498962,278.979553 632.071777,279.008209 669.644531,278.991608 
	C687.596680,278.983643 705.548889,278.889679 723.934814,278.893250 
	C816.579102,278.967865 908.789551,278.983917 1001.000000,279.000000 
	C1001.000000,334.354218 1001.000000,389.708466 1001.000000,445.531342 
	C908.789734,446.016174 816.579468,446.032349 723.445435,445.989624 
	C667.874390,445.908569 613.227173,445.885406 558.579956,445.874298 
	C557.752380,445.874115 556.924866,446.023346 555.623535,446.057526 
	C518.712891,446.061493 482.276031,446.110779 445.839111,446.160095 
z"/>
<path fill="#011945" opacity="1.000000" stroke="none" 
	d="
M556.097290,446.102875 
	C556.924866,446.023346 557.752380,445.874115 558.579956,445.874298 
	C613.227173,445.885406 667.874390,445.908569 723.011719,446.048645 
	C723.498352,628.659912 723.495239,811.153198 723.488586,993.646484 
	C723.488525,995.812378 723.442505,997.978210 723.208984,1000.572021 
	C667.645752,1001.000000 612.291565,1001.000000 556.542786,1000.537231 
	C556.153503,816.083191 556.158752,632.091980 556.161133,448.100800 
	C556.161133,447.434814 556.119446,446.768860 556.097290,446.102875 
z"/>
<path fill="#DF0623" opacity="1.000000" stroke="none" 
	d="
M445.901367,168.235748 
	C445.572845,168.183563 445.244324,168.085770 444.915771,168.085632 
	C390.181580,168.061813 335.447357,168.044113 280.713165,168.041580 
	C280.231049,168.041550 279.748932,168.248398 278.634033,168.534378 
	C276.222961,168.527618 274.444733,168.186020 272.666412,168.185501 
	C184.104950,168.159668 95.543480,168.164154 6.982009,168.156464 
	C4.988002,168.156281 2.994003,168.054428 1.000000,168.000000 
	C1.000000,112.979103 1.000000,57.958210 1.461255,2.468865 
	C184.618713,2.000485 367.314911,2.000906 550.011108,1.996074 
	C552.008240,1.996021 554.005310,1.927380 556.208862,1.969082 
	C556.415222,2.047406 556.838501,2.167373 556.846680,2.622873 
	C556.856445,56.368855 556.865662,109.659340 556.825500,162.949783 
	C556.824219,164.699463 556.321045,166.448746 555.580200,168.183136 
	C518.706238,168.190628 482.303802,168.213181 445.901367,168.235748 
z"/>
<path fill="#FFFFFF" opacity="1.000000" stroke="none" 
	d="
M555.623535,446.057526 
	C556.119446,446.768860 556.161133,447.434814 556.161133,448.100800 
	C556.158752,632.091980 556.153503,816.083191 556.074097,1000.537231 
	C519.645264,1001.000000 483.290466,1001.000000 446.467834,1001.000000 
	C445.944580,999.337463 445.840668,997.674988 445.840607,996.012451 
	C445.834137,813.031677 445.835419,630.050842 445.837708,446.615082 
	C482.276031,446.110779 518.712891,446.061493 555.623535,446.057526 
z"/>
<path fill="#DF0623" opacity="1.000000" stroke="none" 
	d="
M278.731934,280.038910 
	C278.774719,320.696747 278.824310,361.354553 278.856598,402.012390 
	C278.868011,416.343109 278.837036,430.673889 278.535950,445.502472 
	C278.246460,446.000305 277.770020,446.108032 277.770020,446.108032 
	C185.822769,446.118958 93.875526,446.129883 1.464138,446.070404 
	C1.000000,390.645782 1.000000,335.291534 1.464069,279.539612 
	C12.909866,279.149292 23.891592,279.160400 34.873322,279.163544 
	C115.904793,279.186829 196.936264,279.208527 278.058838,279.398193 
	C278.290802,279.788757 278.484802,279.946503 278.731934,280.038910 
z"/>
<path fill="#DF0623" opacity="1.000000" stroke="none" 
	d="
M1001.000000,2.000000 
	C1001.000000,57.020893 1001.000000,112.041786 1000.535889,167.601913 
	C907.877686,168.149811 815.683533,168.158493 723.291748,167.723907 
	C723.062683,150.977722 723.022461,134.674820 723.001770,118.371880 
	C722.952698,79.610374 722.912842,40.848858 722.944946,2.031589 
	C723.020752,1.975829 723.166504,1.856748 723.622070,1.906842 
	C816.385132,1.971291 908.692566,1.985645 1001.000000,2.000000 
z"/>
<path fill="#FFFFFF" opacity="1.000000" stroke="none" 
	d="
M723.489441,168.167160 
	C815.683533,168.158493 907.877686,168.149811 1000.535889,168.070572 
	C1001.000000,204.687561 1001.000000,241.375122 1001.000000,278.531342 
	C908.789551,278.983917 816.579102,278.967865 723.930298,278.436584 
	C723.491150,241.336624 723.490295,204.751892 723.489441,168.167160 
z"/>
<path fill="#FFFFFF" opacity="1.000000" stroke="none" 
	d="
M277.967743,279.230743 
	C196.936264,279.208527 115.904793,279.186829 34.873322,279.163544 
	C23.891592,279.160400 12.909866,279.149292 1.464069,279.070923 
	C1.000000,242.312439 1.000000,205.624878 1.000000,168.468658 
	C2.994003,168.054428 4.988002,168.156281 6.982009,168.156464 
	C95.543480,168.164154 184.104950,168.159668 272.666412,168.185501 
	C274.444733,168.186020 276.222961,168.527618 278.362000,168.890228 
	C278.756439,205.377640 278.790131,241.684937 278.561768,278.469421 
	C278.299744,278.946625 277.967743,279.230743 277.967743,279.230743 
z"/>
<path fill="#E74459" opacity="1.000000" stroke="none" 
	d="
M556.002441,1.890758 
	C554.005310,1.927380 552.008240,1.996021 550.011108,1.996074 
	C367.314911,2.000906 184.618713,2.000485 1.461255,2.000207 
	C1.166286,1.666667 1.315154,1.056174 1.501653,1.044453 
	C2.828731,0.961050 4.163497,1.000000 5.495817,1.000000 
	C188.689713,1.000000 371.883606,1.000000 555.539673,1.222689 
	C556.001831,1.445377 556.002441,1.890758 556.002441,1.890758 
z"/>
<path fill="#E74459" opacity="1.000000" stroke="none" 
	d="
M1001.000000,1.500000 
	C908.692566,1.985645 816.385132,1.971291 723.558472,1.697475 
	C723.039246,1.438015 723.000000,1.000000 723.000000,1.000000 
	C815.666687,1.000000 908.333313,1.000000 1001.000000,1.500000 
z"/>
<path fill="#808CA2" opacity="1.000000" stroke="none" 
	d="
M722.531372,1.000000 
	C723.000000,1.000000 723.039246,1.438015 723.102905,1.647381 
	C723.166504,1.856748 723.020752,1.975829 722.486206,1.996937 
	C684.703552,2.012397 647.455383,1.988667 610.207275,2.008969 
	C592.417664,2.018666 574.628113,2.111950 556.838501,2.167374 
	C556.838501,2.167373 556.415222,2.047406 556.208862,1.969082 
	C556.002441,1.890758 556.001831,1.445377 556.000916,1.222689 
	C611.354248,1.000000 666.708435,1.000000 722.531372,1.000000 
z"/>
<path fill="#A90B2C" opacity="1.000000" stroke="none" 
	d="
M277.848145,446.343842 
	C277.770020,446.108032 278.246460,446.000305 278.487427,445.963745 
	C278.779510,446.120483 278.830597,446.313721 278.807068,446.796753 
	C278.365997,447.073059 278.097290,446.904083 277.848145,446.343842 
z"/>
<path fill="#FFFFFF" opacity="1.000000" stroke="none" 
	d="
M445.883606,168.686951 
	C482.303802,168.213181 518.706238,168.190628 555.617432,168.635773 
	C556.083435,205.680832 556.040771,242.258209 555.998047,278.835571 
	C519.659363,278.889893 483.320709,278.944214 446.517273,278.998566 
	C445.979492,259.526520 445.877411,240.054459 445.842255,220.582306 
	C445.811279,203.434326 445.855042,186.286209 445.883606,168.686951 
z"/>
<path fill="#A90B2C" opacity="1.000000" stroke="none" 
	d="
M278.058838,279.398193 
	C277.967743,279.230743 278.299744,278.946625 278.517181,278.930634 
	C278.782562,279.102142 278.830475,279.289612 278.805176,279.757996 
	C278.484802,279.946503 278.290802,279.788757 278.058838,279.398193 
z"/>
<path fill="#011945" opacity="1.000000" stroke="none" 
	d="
M556.462158,278.902527 
	C556.040771,242.258209 556.083435,205.680832 556.088989,168.650833 
	C556.321045,166.448746 556.824219,164.699463 556.825500,162.949783 
	C556.865662,109.659340 556.856445,56.368855 556.846680,2.622873 
	C574.628113,2.111950 592.417664,2.018666 610.207275,2.008969 
	C647.455383,1.988667 684.703552,2.012397 722.410400,2.052696 
	C722.912842,40.848858 722.952698,79.610374 723.001770,118.371880 
	C723.022461,134.674820 723.062683,150.977722 723.291748,167.723907 
	C723.490295,204.751892 723.491150,241.336624 723.496521,278.378021 
	C705.548889,278.889679 687.596680,278.983643 669.644531,278.991608 
	C632.071777,279.008209 594.498962,278.979553 556.462158,278.902527 
z"/>
</svg>