<svg version="1.1" id="Layer_1" xmlns="http://www.w3.org/2000/svg" xmlns:xlink="http://www.w3.org/1999/xlink" x="0px" y="0px"
	 width="100%" viewBox="0 0 1000 121" enable-background="new 0 0 1000 121" xml:space="preserve">
<path fill="#FDFDFE" opacity="1.000000" stroke="none" 
	d="
M1001.000000,119.000000 
	C1001.000000,119.998688 1001.000000,120.997368 1001.000000,121.998032 
	C892.644043,122.000000 784.288086,122.000000 675.602295,121.624634 
	C695.874512,118.755180 709.007568,106.055855 709.836731,85.275131 
	C710.917847,58.181320 710.530518,31.028875 710.757324,3.901488 
	C710.759766,3.611962 710.523193,3.320437 710.282166,2.760086 
	C702.312927,2.760086 694.238647,2.760086 685.831299,2.760086 
	C685.831299,4.847659 685.831238,6.663007 685.831299,8.478354 
	C685.831482,30.127129 685.878784,51.776096 685.789429,73.424500 
	C685.773010,77.402214 685.481934,81.424095 684.829468,85.344353 
	C683.514282,93.247375 679.309570,99.211845 671.090881,100.517448 
	C653.600952,103.295891 642.348022,98.568100 642.066833,78.681702 
	C641.734924,55.207047 641.891113,31.725487 641.836670,8.246920 
	C641.832520,6.479904 641.836121,4.712872 641.836121,2.833281 
	C633.209412,2.833281 625.159729,2.833281 617.162964,2.833281 
	C617.162964,29.802401 616.390442,56.458603 617.404114,83.046707 
	C618.235046,104.841049 627.899902,115.125328 649.085022,120.884270 
	C649.773560,121.071449 650.363892,121.619942 651.000000,122.000000 
	C538.310669,122.000000 425.621368,122.000000 312.614777,121.635254 
	C326.943359,119.582527 336.043976,111.668457 339.195068,97.336456 
	C340.221741,92.666954 340.734955,87.794533 340.763428,83.010643 
	C340.913879,57.707130 340.839539,32.402245 340.822906,7.097848 
	C340.821960,5.677489 340.641357,4.257248 340.536835,2.726472 
	C332.215515,2.726472 324.287292,2.726472 315.997559,2.726472 
	C315.997559,4.764994 315.997559,6.565714 315.997589,8.366434 
	C315.997803,34.003796 316.005341,59.641167 315.985138,85.278511 
	C315.983429,87.437515 316.023193,89.636452 315.651733,91.747887 
	C314.479462,98.411247 310.821899,101.529984 304.091553,101.888695 
	C296.719269,102.281624 292.380432,99.559280 290.896790,92.687309 
	C289.650208,86.913414 289.220306,80.963196 288.426910,75.090469 
	C281.015717,75.089890 273.606506,75.089890 264.772400,75.089890 
	C266.326843,84.148315 267.188934,92.894310 269.427582,101.272491 
	C272.209961,111.685684 279.320221,118.316406 290.136871,120.585449 
	C291.145752,120.797081 292.048157,121.516411 293.000000,122.000000 
	C195.774353,122.000000 98.548706,122.000000 1.000000,122.000000 
	C1.000000,89.311401 1.000000,56.621742 1.463359,23.542284 
	C13.224171,23.229549 24.521624,23.306612 35.814514,23.824493 
	C35.809948,55.698792 35.809948,87.132271 35.809948,118.785141 
	C44.148796,118.785141 52.076523,118.785141 60.538383,118.785141 
	C60.538383,86.922234 60.538383,55.148964 61.029213,23.290073 
	C72.609520,23.204449 83.698997,23.204449 94.916016,23.204449 
	C94.916016,16.055065 94.916016,9.487278 94.916016,2.456174 
	C92.866737,2.456174 91.065582,2.456204 89.264427,2.456170 
	C61.646660,2.455644 34.028885,2.463612 6.411146,2.435079 
	C4.607283,2.433215 2.803709,2.151526 1.000000,2.000000 
	C1.166473,1.666667 1.306139,1.065034 1.503944,1.045270 
	C2.493676,0.946379 3.498648,1.000000 4.498261,1.000000 
	C336.036774,1.000000 667.575317,1.000000 999.113831,1.000000 
	C999.742615,1.000000 1000.371399,1.000000 1001.000000,1.000000 
	C1001.000000,39.431347 1001.000000,77.749634 1000.680603,116.356804 
	C987.340698,79.905121 974.270691,43.181858 961.389282,6.392602 
	C960.305359,3.297135 958.919922,2.306568 955.764587,2.418594 
	C949.281799,2.648763 942.777771,2.673060 936.297363,2.412282 
	C933.048950,2.281563 931.813965,3.498828 930.758057,6.482505 
	C917.974243,42.604053 905.020020,78.665237 892.130432,114.749352 
	C891.669983,116.038322 891.418518,117.401894 891.059387,118.769897 
	C899.805420,118.769897 908.088562,118.769897 916.445496,118.769897 
	C919.167053,110.742149 921.826294,102.898010 924.990601,95.098770 
	C939.296631,95.150330 953.097534,95.156990 967.010559,95.515533 
	C969.587036,103.505684 972.051392,111.143951 974.585999,119.000000 
	C983.526550,119.000000 992.263306,119.000000 1001.000000,119.000000 
M160.049652,95.159554 
	C173.947052,95.173782 187.844452,95.188004 201.927094,95.938683 
	C204.374405,103.624741 206.821716,111.310791 209.180756,118.719650 
	C218.273819,118.719650 226.827667,118.719650 235.416458,118.719650 
	C235.356079,118.115791 235.387238,117.772324 235.282898,117.476677 
	C222.087875,80.090820 208.912903,42.697746 195.552719,5.370962 
	C195.087906,4.072319 192.805328,2.690730 191.310745,2.621198 
	C184.833145,2.319845 178.319748,2.746035 171.847137,2.395242 
	C168.037994,2.188801 166.375610,3.461044 165.113068,7.054003 
	C153.948929,38.825142 142.571655,70.521355 131.274384,102.245766 
	C129.342499,107.670769 127.491371,113.124527 125.451408,119.001518 
	C133.569046,119.001518 141.049652,119.140205 148.514908,118.864029 
	C149.748825,118.818382 151.528824,117.186363 152.010849,115.896660 
	C154.567719,109.055511 156.790848,102.089630 160.049652,95.159554 
M480.733154,29.068352 
	C481.105164,29.084389 481.477142,29.100426 481.966888,29.912373 
	C488.596161,59.571712 495.225464,89.231049 501.842255,118.834534 
	C510.093872,118.834534 517.898315,118.834534 525.822266,118.834534 
	C532.677673,88.495140 539.502563,58.290722 546.327454,28.086302 
	C546.757629,28.136234 547.187805,28.186169 547.617981,28.236103 
	C547.617981,58.430508 547.617981,88.624916 547.617981,118.685318 
	C555.504272,118.685318 562.762573,118.685318 569.987427,118.685318 
	C569.987427,79.906067 569.987427,41.446495 569.987427,2.735402 
	C558.350342,2.735402 546.896606,2.735402 535.020020,2.735402 
	C528.252747,32.186707 521.457764,61.758675 514.380737,92.558319 
	C513.668213,90.224792 513.227173,89.038094 512.943909,87.814850 
	C507.507568,64.335770 502.115265,40.846436 496.647034,17.374792 
	C495.521606,12.544089 495.565704,5.980161 492.451202,3.485739 
	C489.356262,1.006918 482.961761,2.564844 478.012329,2.504608 
	C471.255951,2.422379 464.497772,2.484085 457.701691,2.484085 
	C457.701691,41.694962 457.701691,80.136131 457.701691,118.754555 
	C465.324188,118.754555 472.722107,118.754555 480.519043,118.754555 
	C480.519043,107.206169 480.559143,95.903519 480.509949,84.601250 
	C480.429504,66.110970 480.290985,47.620941 480.733154,29.068352 
M853.067078,27.650637 
	C848.939514,12.667588 838.507446,3.534664 822.967896,3.046043 
	C802.003113,2.386830 781.008667,2.663217 760.026855,2.570210 
	C759.596558,2.568302 759.164551,2.957780 758.695679,3.182727 
	C758.695679,41.683647 758.695679,80.117912 758.695679,118.767822 
	C766.643127,118.767822 774.372864,118.767822 782.673035,118.767822 
	C782.673035,103.647598 782.673035,88.754341 782.673035,73.519516 
	C790.543762,73.519516 797.847534,73.518951 805.151245,73.519630 
	C822.550537,73.521248 825.802185,76.930641 826.083252,94.163567 
	C826.201904,101.439026 827.202515,108.709396 828.045532,115.953773 
	C828.172729,117.047119 829.608276,118.840248 830.476685,118.863106 
	C838.874573,119.084106 847.280579,118.995735 856.027893,118.995735 
	C855.736938,117.512863 855.861877,116.402168 855.385864,115.996674 
	C851.069153,112.318977 850.859314,107.345917 850.841980,102.289146 
	C850.828308,98.290825 850.907898,94.291039 850.826782,90.294327 
	C850.601501,79.188583 849.190063,68.642288 836.813660,63.599907 
	C850.796448,55.574848 856.160828,43.787624 853.067078,27.650637 
M386.838593,33.499966 
	C386.838593,61.898308 386.838593,90.296654 386.838593,118.650848 
	C395.289032,118.650848 403.175323,118.650848 410.793701,118.650848 
	C410.793701,79.763855 410.793701,41.223484 410.793701,2.818764 
	C402.675873,2.818764 394.929718,2.818764 386.838593,2.818764 
	C386.838593,12.910712 386.838593,22.705338 386.838593,33.499966 
z"/>
<path fill="#041C47" opacity="1.000000" stroke="none" 
	d="
M651.468628,122.000000 
	C650.363892,121.619942 649.773560,121.071449 649.085022,120.884270 
	C627.899902,115.125328 618.235046,104.841049 617.404114,83.046707 
	C616.390442,56.458603 617.162964,29.802401 617.162964,2.833281 
	C625.159729,2.833281 633.209412,2.833281 641.836121,2.833281 
	C641.836121,4.712872 641.832520,6.479904 641.836670,8.246920 
	C641.891113,31.725487 641.734924,55.207047 642.066833,78.681702 
	C642.348022,98.568100 653.600952,103.295891 671.090881,100.517448 
	C679.309570,99.211845 683.514282,93.247375 684.829468,85.344353 
	C685.481934,81.424095 685.773010,77.402214 685.789429,73.424500 
	C685.878784,51.776096 685.831482,30.127129 685.831299,8.478354 
	C685.831238,6.663007 685.831299,4.847659 685.831299,2.760086 
	C694.238647,2.760086 702.312927,2.760086 710.282166,2.760086 
	C710.523193,3.320437 710.759766,3.611962 710.757324,3.901488 
	C710.530518,31.028875 710.917847,58.181320 709.836731,85.275131 
	C709.007568,106.055855 695.874512,118.755180 675.136230,121.624634 
	C667.312439,122.000000 659.624817,122.000000 651.468628,122.000000 
z"/>
<path fill="#041B47" opacity="1.000000" stroke="none" 
	d="
M924.485596,95.053879 
	C921.826294,102.898010 919.167053,110.742149 916.445496,118.769897 
	C908.088562,118.769897 899.805420,118.769897 891.059387,118.769897 
	C891.418518,117.401894 891.669983,116.038322 892.130432,114.749352 
	C905.020020,78.665237 917.974243,42.604053 930.758057,6.482505 
	C931.813965,3.498828 933.048950,2.281563 936.297363,2.412282 
	C942.777771,2.673060 949.281799,2.648763 955.764587,2.418594 
	C958.919922,2.306568 960.305359,3.297135 961.389282,6.392602 
	C974.270691,43.181858 987.340698,79.905121 1000.680603,116.822845 
	C1001.000000,117.444443 1001.000000,117.888893 1001.000000,118.666672 
	C992.263306,119.000000 983.526550,119.000000 974.585999,119.000000 
	C972.051392,111.143951 969.587036,103.505684 967.050232,95.127579 
	C964.645569,87.890800 962.313354,81.393837 959.960815,74.522644 
	C955.375977,59.811367 950.811401,45.474319 945.817017,29.787184 
	C941.167542,44.007118 937.040344,56.614723 932.926514,69.226692 
	C932.311890,71.111015 931.759766,73.015694 930.939331,75.206093 
	C928.628540,82.018791 926.557068,88.536339 924.485596,95.053879 
z"/>
<path fill="#041C47" opacity="1.000000" stroke="none" 
	d="
M293.468262,122.000000 
	C292.048157,121.516411 291.145752,120.797081 290.136871,120.585449 
	C279.320221,118.316406 272.209961,111.685684 269.427582,101.272491 
	C267.188934,92.894310 266.326843,84.148315 264.772400,75.089890 
	C273.606506,75.089890 281.015717,75.089890 288.426910,75.090469 
	C289.220306,80.963196 289.650208,86.913414 290.896790,92.687309 
	C292.380432,99.559280 296.719269,102.281624 304.091553,101.888695 
	C310.821899,101.529984 314.479462,98.411247 315.651733,91.747887 
	C316.023193,89.636452 315.983429,87.437515 315.985138,85.278511 
	C316.005341,59.641167 315.997803,34.003796 315.997589,8.366434 
	C315.997559,6.565714 315.997559,4.764994 315.997559,2.726472 
	C324.287292,2.726472 332.215515,2.726472 340.536835,2.726472 
	C340.641357,4.257248 340.821960,5.677489 340.822906,7.097848 
	C340.839539,32.402245 340.913879,57.707130 340.763428,83.010643 
	C340.734955,87.794533 340.221741,92.666954 339.195068,97.336456 
	C336.043976,111.668457 326.943359,119.582527 312.148743,121.635254 
	C305.978851,122.000000 299.957703,122.000000 293.468262,122.000000 
z"/>
<path fill="#E00C28" opacity="1.000000" stroke="none" 
	d="
M35.819077,23.383675 
	C24.521624,23.306612 13.224171,23.229549 1.463359,23.076242 
	C1.000000,16.312355 1.000000,9.624711 1.000000,2.468533 
	C2.803709,2.151526 4.607283,2.433215 6.411146,2.435079 
	C34.028885,2.463612 61.646660,2.455644 89.264427,2.456170 
	C91.065582,2.456204 92.866737,2.456174 94.916016,2.456174 
	C94.916016,9.487278 94.916016,16.055065 94.916016,23.204449 
	C83.698997,23.204449 72.609520,23.204449 60.603287,23.210533 
	C51.730717,23.272305 43.774895,23.327990 35.819077,23.383675 
z"/>
<path fill="#051D48" opacity="1.000000" stroke="none" 
	d="
M480.176941,29.130808 
	C480.290985,47.620941 480.429504,66.110970 480.509949,84.601250 
	C480.559143,95.903519 480.519043,107.206169 480.519043,118.754555 
	C472.722107,118.754555 465.324188,118.754555 457.701691,118.754555 
	C457.701691,80.136131 457.701691,41.694962 457.701691,2.484085 
	C464.497772,2.484085 471.255951,2.422379 478.012329,2.504608 
	C482.961761,2.564844 489.356262,1.006918 492.451202,3.485739 
	C495.565704,5.980161 495.521606,12.544089 496.647034,17.374792 
	C502.115265,40.846436 507.507568,64.335770 512.943909,87.814850 
	C513.227173,89.038094 513.668213,90.224792 514.380737,92.558319 
	C521.457764,61.758675 528.252747,32.186707 535.020020,2.735402 
	C546.896606,2.735402 558.350342,2.735402 569.987427,2.735402 
	C569.987427,41.446495 569.987427,79.906067 569.987427,118.685318 
	C562.762573,118.685318 555.504272,118.685318 547.617981,118.685318 
	C547.617981,88.624916 547.617981,58.430508 547.617981,28.236103 
	C547.187805,28.186169 546.757629,28.136234 546.327454,28.086302 
	C539.502563,58.290722 532.677673,88.495140 525.822266,118.834534 
	C517.898315,118.834534 510.093872,118.834534 501.842255,118.834534 
	C495.225464,89.231049 488.596161,59.571712 481.970581,29.145229 
	C481.552002,27.097202 481.129761,25.816317 480.707520,24.535433 
	C480.437775,24.585966 480.167999,24.636501 479.898254,24.687035 
	C479.991150,26.168293 480.084045,27.649549 480.176941,29.130808 
z"/>
<path fill="#061D48" opacity="1.000000" stroke="none" 
	d="
M853.153564,28.063278 
	C856.160828,43.787624 850.796448,55.574848 836.813660,63.599907 
	C849.190063,68.642288 850.601501,79.188583 850.826782,90.294327 
	C850.907898,94.291039 850.828308,98.290825 850.841980,102.289146 
	C850.859314,107.345917 851.069153,112.318977 855.385864,115.996674 
	C855.861877,116.402168 855.736938,117.512863 856.027893,118.995735 
	C847.280579,118.995735 838.874573,119.084106 830.476685,118.863106 
	C829.608276,118.840248 828.172729,117.047119 828.045532,115.953773 
	C827.202515,108.709396 826.201904,101.439026 826.083252,94.163567 
	C825.802185,76.930641 822.550537,73.521248 805.151245,73.519630 
	C797.847534,73.518951 790.543762,73.519516 782.673035,73.519516 
	C782.673035,88.754341 782.673035,103.647598 782.673035,118.767822 
	C774.372864,118.767822 766.643127,118.767822 758.695679,118.767822 
	C758.695679,80.117912 758.695679,41.683647 758.695679,3.182727 
	C759.164551,2.957780 759.596558,2.568302 760.026855,2.570210 
	C781.008667,2.663217 802.003113,2.386830 822.967896,3.046043 
	C838.507446,3.534664 848.939514,12.667588 853.153564,28.063278 
M806.444885,53.998070 
	C809.919800,53.807617 813.448120,53.936462 816.859253,53.365086 
	C826.010864,51.832138 829.275085,47.691185 829.164490,38.370056 
	C829.057861,29.388119 825.227417,24.002829 816.548767,23.425213 
	C805.331604,22.678642 794.027222,23.243202 782.797119,23.243202 
	C782.797119,33.566315 782.797119,43.620094 782.797119,53.998066 
	C790.538330,53.998066 797.999451,53.998066 806.444885,53.998070 
z"/>
<path fill="#041B47" opacity="1.000000" stroke="none" 
	d="
M159.129608,95.166962 
	C156.790848,102.089630 154.567719,109.055511 152.010849,115.896660 
	C151.528824,117.186363 149.748825,118.818382 148.514908,118.864029 
	C141.049652,119.140205 133.569046,119.001518 125.451408,119.001518 
	C127.491371,113.124527 129.342499,107.670769 131.274384,102.245766 
	C142.571655,70.521355 153.948929,38.825142 165.113068,7.054003 
	C166.375610,3.461044 168.037994,2.188801 171.847137,2.395242 
	C178.319748,2.746035 184.833145,2.319845 191.310745,2.621198 
	C192.805328,2.690730 195.087906,4.072319 195.552719,5.370962 
	C208.912903,42.697746 222.087875,80.090820 235.282898,117.476677 
	C235.387238,117.772324 235.356079,118.115791 235.416458,118.719650 
	C226.827667,118.719650 218.273819,118.719650 209.180756,118.719650 
	C206.821716,111.310791 204.374405,103.624741 201.876007,95.194084 
	C199.435913,87.938614 197.046921,81.427742 194.613495,74.506424 
	C189.990219,59.640999 185.411362,45.186008 180.452927,29.532671 
	C175.354553,45.477360 170.654419,60.176624 165.662201,75.102295 
	C163.289963,81.941460 161.209778,88.554207 159.129608,95.166962 
z"/>
<path fill="#011945" opacity="1.000000" stroke="none" 
	d="
M386.838593,32.999962 
	C386.838593,22.705338 386.838593,12.910712 386.838593,2.818764 
	C394.929718,2.818764 402.675873,2.818764 410.793701,2.818764 
	C410.793701,41.223484 410.793701,79.763855 410.793701,118.650848 
	C403.175323,118.650848 395.289032,118.650848 386.838593,118.650848 
	C386.838593,90.296654 386.838593,61.898308 386.838593,32.999962 
z"/>
<path fill="#071E49" opacity="1.000000" stroke="none" 
	d="
M35.814514,23.824493 
	C43.774895,23.327990 51.730717,23.272305 60.112457,23.296158 
	C60.538383,55.148964 60.538383,86.922234 60.538383,118.785141 
	C52.076523,118.785141 44.148796,118.785141 35.809948,118.785141 
	C35.809948,87.132271 35.809948,55.698792 35.814514,23.824493 
z"/>
<path fill="#DE0623" opacity="1.000000" stroke="none" 
	d="
M194.657928,74.916862 
	C197.046921,81.427742 199.435913,87.938614 201.783386,94.825851 
	C187.844452,95.188004 173.947052,95.173782 159.589630,95.163254 
	C161.209778,88.554207 163.289963,81.941460 166.131760,75.160614 
	C176.148239,74.967308 185.403076,74.942085 194.657928,74.916862 
z"/>
<path fill="#DE0623" opacity="1.000000" stroke="none" 
	d="
M924.990662,95.098778 
	C926.557068,88.536339 928.628540,82.018791 931.394592,75.234673 
	C941.386475,74.944366 950.683838,74.920624 959.981140,74.896881 
	C962.313354,81.393837 964.645569,87.890800 966.938110,94.775711 
	C953.097534,95.156990 939.296631,95.150330 924.990662,95.098778 
z"/>
<path fill="#848FA5" opacity="1.000000" stroke="none" 
	d="
M480.455048,29.099579 
	C480.084045,27.649549 479.991150,26.168293 479.898254,24.687035 
	C480.167999,24.636501 480.437775,24.585966 480.707520,24.535433 
	C481.129761,25.816317 481.552002,27.097202 481.911682,28.747276 
	C481.477142,29.100426 481.105164,29.084389 480.455048,29.099579 
z"/>
<path fill="#FAFBFB" opacity="1.000000" stroke="none" 
	d="
M959.960815,74.522652 
	C950.683838,74.920624 941.386475,74.944366 931.633911,74.939522 
	C931.759766,73.015694 932.311890,71.111015 932.926514,69.226692 
	C937.040344,56.614723 941.167542,44.007118 945.817017,29.787184 
	C950.811401,45.474319 955.375977,59.811367 959.960815,74.522652 
z"/>
<path fill="#FBFCFC" opacity="1.000000" stroke="none" 
	d="
M805.952759,53.998070 
	C797.999451,53.998066 790.538330,53.998066 782.797119,53.998066 
	C782.797119,43.620094 782.797119,33.566315 782.797119,23.243202 
	C794.027222,23.243202 805.331604,22.678642 816.548767,23.425213 
	C825.227417,24.002829 829.057861,29.388119 829.164490,38.370056 
	C829.275085,47.691185 826.010864,51.832138 816.859253,53.365086 
	C813.448120,53.936462 809.919800,53.807617 805.952759,53.998070 
z"/>
<path fill="#FAFBFB" opacity="1.000000" stroke="none" 
	d="
M194.613495,74.506424 
	C185.403076,74.942085 176.148239,74.967308 166.423828,74.934204 
	C170.654419,60.176624 175.354553,45.477360 180.452927,29.532671 
	C185.411362,45.186008 189.990219,59.640999 194.613495,74.506424 
z"/>
</svg>