<svg version="1.1" id="Layer_1" xmlns="http://www.w3.org/2000/svg" xmlns:xlink="http://www.w3.org/1999/xlink" x="0px" y="0px"
	 width="100%" viewBox="0 0 1000 148" enable-background="new 0 0 1000 148" xml:space="preserve">
<path fill="#FEFEFE" opacity="1.000000" stroke="none" 
	d="
M1001.000000,137.000000 
	C1001.000000,140.998108 1001.000000,144.996216 1001.000000,148.997162 
	C703.642578,149.000000 406.285187,149.000000 108.196259,148.598297 
	C107.535362,121.216919 107.605980,94.237236 108.170822,67.219727 
	C121.710686,67.181892 134.756332,67.181892 147.927597,67.181892 
	C147.927597,58.717442 147.927597,50.832439 147.927597,42.166378 
	C134.298828,42.166378 120.904709,42.166378 107.510605,41.688900 
	C107.549080,36.384148 107.587540,31.556871 108.110794,26.652393 
	C121.680313,26.575193 134.765030,26.575193 147.985687,26.575193 
	C147.985687,17.951073 147.985687,9.988096 148.002075,1.769019 
	C148.012314,1.341945 148.006149,1.170972 148.000000,1.000000 
	C432.209778,1.000000 716.419556,1.000000 1001.000000,1.000000 
	C1001.000000,44.690044 1001.000000,88.381142 1000.681030,132.356537 
	C990.196106,103.860298 980.006104,75.088173 969.904236,46.285130 
	C968.970947,43.624195 967.828247,42.199345 964.666748,42.404591 
	C959.860352,42.716618 955.002747,42.720329 950.197266,42.400070 
	C946.884460,42.179291 945.690430,43.550949 944.671082,46.481728 
	C938.185425,65.129250 931.499451,83.707169 924.864380,102.302620 
	C920.871094,113.494209 916.850342,124.676010 912.607849,136.515503 
	C918.713867,136.515503 924.157532,136.294662 929.571533,136.599640 
	C932.738403,136.778046 933.976562,135.417908 934.824280,132.705276 
	C936.454651,127.488831 938.308105,122.342117 940.533325,117.164963 
	C951.984192,117.168335 962.970703,117.173256 974.089661,117.520508 
	C975.575195,122.099792 977.233032,126.268730 978.197815,130.592316 
	C979.215576,135.153107 981.249817,137.102249 986.219299,136.648834 
	C991.094971,136.203995 996.069092,136.838928 1001.000000,137.000000 
M224.997604,60.822182 
	C224.997604,85.893234 224.997604,110.964287 224.997604,136.273285 
	C231.775055,136.273285 238.186401,136.273285 245.012238,136.273285 
	C245.012238,110.663078 245.012238,85.266754 245.919403,59.620228 
	C254.859421,59.620228 263.799438,59.620228 272.703613,59.620228 
	C272.703613,53.583214 272.703613,48.185280 272.703613,42.729473 
	C247.338455,42.729473 222.292816,42.729473 197.309692,42.729473 
	C197.309692,48.435669 197.309692,53.832352 197.309692,59.868416 
	C206.754578,59.868416 215.871002,59.868416 224.997604,60.822182 
M358.718781,117.751328 
	C360.352539,122.977501 361.864746,128.247177 363.708282,133.398285 
	C364.151337,134.636307 365.656097,136.318817 366.737518,136.367935 
	C372.977783,136.651443 379.237549,136.506210 385.285828,136.506210 
	C385.527863,135.811859 385.661102,135.634323 385.620209,135.517975 
	C375.001801,105.305183 364.392151,75.089203 353.653259,44.919239 
	C353.281036,43.873531 351.635834,42.631573 350.547821,42.596275 
	C343.912720,42.381023 337.267090,42.488747 330.494965,42.488747 
	C319.311157,73.885559 308.232910,104.986038 297.035126,136.422089 
	C304.446686,136.422089 310.929901,136.422089 317.774261,136.422089 
	C319.920776,130.020920 322.075928,123.594101 325.136993,117.177704 
	C336.241394,117.153557 347.345825,117.129402 358.718781,117.751328 
M636.498291,67.154465 
	C636.498291,90.093437 636.498291,113.032410 636.498291,136.244995 
	C642.927917,136.244995 648.835632,136.244995 654.692444,136.244995 
	C654.692444,104.920578 654.692444,73.861229 654.692444,42.479485 
	C646.575378,42.479485 638.764526,42.610992 630.961853,42.415588 
	C627.783936,42.336002 626.422729,43.121002 625.676758,46.541058 
	C621.285583,66.672318 616.574463,86.734047 611.913757,106.805893 
	C611.394775,109.040871 610.514709,111.192032 609.559937,114.126320 
	C603.875183,89.612617 598.409302,66.042450 593.019836,42.801929 
	C583.008911,42.801929 573.732727,42.801929 564.342957,42.801929 
	C564.342957,74.054466 564.342957,104.986526 564.342957,136.120346 
	C570.565491,136.120346 576.597046,136.120346 583.058289,136.120346 
	C583.058289,111.782112 583.058289,87.842422 583.058289,63.902740 
	C583.272949,63.889080 583.487610,63.875420 583.702271,63.861759 
	C589.143860,88.081703 594.585449,112.301643 600.027161,136.522018 
	C605.673279,136.522018 610.670349,136.406693 615.658325,136.569565 
	C618.241089,136.653900 619.448059,135.949310 620.050415,133.199081 
	C624.956604,110.797440 630.042053,88.435066 635.564819,65.935310 
	C635.879578,66.051048 636.194336,66.166786 636.498291,67.154465 
M806.157227,82.499954 
	C806.157227,100.386703 806.157227,118.273445 806.157227,136.171906 
	C813.125610,136.171906 819.369202,136.171906 825.842773,136.171906 
	C825.842773,129.837646 825.842773,123.853157 825.842773,117.868675 
	C825.842773,111.943825 825.842773,106.018982 825.842773,99.943428 
	C834.093201,99.943428 841.732971,99.734177 849.355835,100.004303 
	C856.487793,100.257027 859.375244,102.818878 860.167175,109.823128 
	C860.856201,115.917465 860.607788,122.112732 861.151855,128.229752 
	C861.890625,136.536774 862.045166,136.523071 870.336914,136.523224 
	C875.162415,136.523331 879.987976,136.523254 883.906616,136.523254 
	C882.738159,130.990082 881.563721,126.533302 880.920715,122.001129 
	C880.480469,118.897888 880.874512,115.685371 880.731140,112.529182 
	C880.341919,103.960045 879.237061,95.713913 870.659119,92.284477 
	C873.849915,88.881775 877.792664,86.059601 879.869385,82.226456 
	C889.562561,64.334778 878.084717,43.847630 857.736206,42.979984 
	C841.454163,42.285725 825.128601,42.607327 808.822144,42.506962 
	C808.029480,42.502083 807.235168,42.775330 806.535950,42.901966 
	C806.376709,43.423664 806.198975,43.734833 806.198364,44.046329 
	C806.174622,56.530846 806.167053,69.015396 806.157227,82.499954 
M728.606384,138.844360 
	C730.105835,138.844162 731.605591,138.860794 733.104736,138.841248 
	C753.987305,138.568909 766.482849,128.088181 767.539795,107.406807 
	C768.634338,85.991058 767.783386,64.475883 767.783386,42.832726 
	C761.171021,42.832726 754.632874,42.832726 747.822205,42.832726 
	C747.822205,62.337437 747.861023,81.484169 747.783630,100.630424 
	C747.770874,103.775146 747.470215,106.958466 746.906372,110.051720 
	C746.097351,114.489853 743.890869,118.115074 739.668091,120.219543 
	C726.417053,126.823334 713.350037,119.702255 712.950500,105.106308 
	C712.431091,86.130447 712.634583,67.134789 712.529419,48.147633 
	C712.519653,46.382797 712.528137,44.617859 712.528137,42.885429 
	C705.461121,42.885429 699.081421,42.885429 692.958191,42.885429 
	C692.958191,65.270889 692.609253,87.251328 693.102234,109.212852 
	C693.356995,120.558769 698.456482,130.086807 709.340820,134.704681 
	C715.012695,137.111038 721.528381,137.528259 728.606384,138.844360 
M424.343353,100.830574 
	C419.715363,100.830574 415.087341,100.830574 410.170227,100.830574 
	C410.170227,103.636147 410.022217,106.093452 410.193512,108.528290 
	C411.635376,129.021667 419.079895,137.237549 437.505920,138.774048 
	C458.498962,140.524612 470.140045,129.893417 470.168457,108.933769 
	C470.179749,100.602615 470.170349,92.271423 470.170349,83.940254 
	C470.170380,70.293991 470.170349,56.647736 470.170349,42.896866 
	C463.447876,42.896866 457.077545,42.896866 450.488068,42.896866 
	C450.488068,63.627029 450.506989,83.945923 450.469208,104.264709 
	C450.463013,107.588211 450.413849,110.936035 450.019470,114.228897 
	C449.369690,119.654762 446.575531,122.098816 441.125977,122.473129 
	C435.092377,122.887573 431.429321,120.689651 430.245178,115.332558 
	C429.424896,111.621658 428.994904,107.763481 428.943237,103.963600 
	C428.904114,101.084435 427.641327,100.564911 424.343353,100.830574 
M510.980774,42.463959 
	C507.427887,41.904007 507.431885,44.127098 507.436066,46.704720 
	C507.482635,75.336754 507.457886,103.968910 507.479309,132.600998 
	C507.480255,133.855057 507.741425,135.108917 507.876404,136.318237 
	C514.433350,136.318237 520.553650,136.318237 526.927979,136.318237 
	C526.927979,105.052826 526.927979,74.005127 526.927979,42.464191 
	C521.815735,42.464191 516.855347,42.464191 510.980774,42.463959 
z"/>
<path fill="#051D47" opacity="1.000000" stroke="none" 
	d="
M940.069031,117.166504 
	C938.308105,122.342117 936.454651,127.488831 934.824280,132.705276 
	C933.976562,135.417908 932.738403,136.778046 929.571533,136.599640 
	C924.157532,136.294662 918.713867,136.515503 912.607849,136.515503 
	C916.850342,124.676010 920.871094,113.494209 924.864380,102.302620 
	C931.499451,83.707169 938.185425,65.129250 944.671082,46.481728 
	C945.690430,43.550949 946.884460,42.179291 950.197266,42.400070 
	C955.002747,42.720329 959.860352,42.716618 964.666748,42.404591 
	C967.828247,42.199345 968.970947,43.624195 969.904236,46.285130 
	C980.006104,75.088173 990.196106,103.860298 1000.681030,132.820435 
	C1001.000000,134.066666 1001.000000,135.133347 1001.000000,136.600006 
	C996.069092,136.838928 991.094971,136.203995 986.219299,136.648834 
	C981.249817,137.102249 979.215576,135.153107 978.197815,130.592316 
	C977.233032,126.268730 975.575195,122.099792 974.121765,117.120155 
	C972.129456,111.129555 970.237549,105.881645 968.256470,100.268051 
	C964.696411,88.751144 961.225525,77.599915 957.754700,66.448692 
	C957.343445,66.430061 956.932251,66.411438 956.521057,66.392815 
	C952.819458,77.826889 949.117920,89.260963 945.196350,100.965042 
	C943.340576,106.545525 941.704834,111.856018 940.069031,117.166504 
z"/>
<path fill="#FFFEFE" opacity="1.000000" stroke="none" 
	d="
M42.000000,149.000000 
	C28.382124,149.000000 14.764247,149.000000 1.000000,149.000000 
	C1.000000,121.979263 1.000000,94.958290 1.466625,67.517235 
	C15.266236,67.118546 28.599222,67.139938 42.009880,67.614281 
	C42.058369,95.044823 42.029182,122.022408 42.000000,149.000000 
z"/>
<path fill="#071D48" opacity="1.000000" stroke="none" 
	d="
M42.468651,149.000000 
	C42.029182,122.022408 42.058369,95.044823 42.087036,67.140137 
	C42.033134,58.320755 41.979755,50.428467 42.014023,42.109940 
	C42.078861,36.649258 42.056061,31.614817 42.478046,26.435366 
	C50.932240,26.380276 58.941647,26.470194 66.898651,26.978836 
	C66.920547,32.454044 66.994858,37.510529 66.990578,43.057587 
	C66.961540,51.421593 67.011093,59.295025 66.982910,67.620956 
	C66.936783,95.048965 66.968391,122.024483 67.000000,149.000000 
	C58.979099,149.000000 50.958202,149.000000 42.468651,149.000000 
z"/>
<path fill="#061D48" opacity="1.000000" stroke="none" 
	d="
M107.676598,67.257561 
	C107.605980,94.237236 107.535362,121.216919 107.732376,148.598297 
	C99.979103,149.000000 91.958199,149.000000 83.405304,148.535004 
	C82.825417,121.137787 82.777534,94.205589 83.204727,67.161072 
	C91.678734,67.118362 99.677666,67.187965 107.676598,67.257561 
z"/>
<path fill="#DF0623" opacity="1.000000" stroke="none" 
	d="
M66.951050,26.560112 
	C58.941647,26.470194 50.932240,26.380276 42.062668,26.380833 
	C37.715652,26.481268 34.228283,26.456097 30.742060,26.507870 
	C20.827791,26.655107 10.913987,26.833731 1.000000,27.000000 
	C1.000000,26.555555 1.000000,26.111111 1.284873,25.033455 
	C1.737821,16.960180 1.905896,9.520117 2.536802,2.045002 
	C29.610058,2.005393 56.220486,2.000834 82.897247,2.460913 
	C82.883232,10.802404 82.802872,18.679260 82.274567,26.518093 
	C76.868103,26.506750 71.909576,26.533432 66.951050,26.560112 
z"/>
<path fill="#FBFBFB" opacity="1.000000" stroke="none" 
	d="
M82.729652,67.273384 
	C82.777534,94.205589 82.825417,121.137787 82.936646,148.535004 
	C77.977905,149.000000 72.955818,149.000000 67.466858,149.000000 
	C66.968391,122.024483 66.936783,95.048965 67.445267,67.618187 
	C72.900131,67.199745 77.814888,67.236565 82.729652,67.273384 
z"/>
<path fill="#051A46" opacity="1.000000" stroke="none" 
	d="
M82.722511,26.556114 
	C82.802872,18.679260 82.883232,10.802404 82.969208,2.216823 
	C82.983215,1.338731 82.991608,1.169365 83.000000,1.000000 
	C90.354256,1.000000 97.708504,1.000000 105.601601,1.293701 
	C106.489388,1.775359 106.838333,1.963316 107.169571,2.609108 
	C107.309906,10.954494 107.467949,18.842045 107.625999,26.729595 
	C107.587540,31.556871 107.549080,36.384148 107.150627,41.803047 
	C98.808426,42.351891 90.826210,42.309113 82.851974,41.857533 
	C82.814133,36.484524 82.768326,31.520319 82.722511,26.556114 
z"/>
<path fill="#DF0623" opacity="1.000000" stroke="none" 
	d="
M41.926376,42.536179 
	C41.979755,50.428467 42.033134,58.320755 42.009361,66.687187 
	C28.599222,67.139938 15.266236,67.118546 1.466625,67.048576 
	C1.000000,59.312424 1.000000,51.624847 1.457850,43.353569 
	C15.252594,42.691975 28.589487,42.614075 41.926376,42.536179 
z"/>
<path fill="#FEF7F8" opacity="1.000000" stroke="none" 
	d="
M42.014023,42.109940 
	C28.589487,42.614075 15.252594,42.691975 1.457850,42.884933 
	C1.000000,37.977909 1.000000,32.955814 1.000000,27.466862 
	C10.913987,26.833731 20.827791,26.655107 30.742060,26.507870 
	C34.228283,26.456097 37.715652,26.481268 41.617874,26.525841 
	C42.056061,31.614817 42.078861,36.649258 42.014023,42.109940 
z"/>
<path fill="#F6C1C9" opacity="1.000000" stroke="none" 
	d="
M82.531342,1.000000 
	C82.991608,1.169365 82.983215,1.338731 82.902863,1.752186 
	C56.220486,2.000834 29.610058,2.005393 2.270345,1.997607 
	C1.360705,1.990175 1.180352,1.995087 1.000000,2.000000 
	C2.324499,1.666667 3.648354,1.045521 4.973591,1.042561 
	C30.669859,0.985157 56.366287,1.000000 82.531342,1.000000 
z"/>
<path fill="#F5C1C9" opacity="1.000000" stroke="none" 
	d="
M107.187279,2.151272 
	C106.838333,1.963316 106.489388,1.775359 106.070221,1.293701 
	C119.687561,1.000000 133.375122,1.000000 147.531342,1.000000 
	C148.006149,1.170972 148.012314,1.341945 147.534607,1.752436 
	C133.762939,2.045060 120.475105,2.098166 107.187279,2.151272 
z"/>
<path fill="#EC6C7D" opacity="1.000000" stroke="none" 
	d="
M1.000000,2.468622 
	C1.180352,1.995087 1.360705,1.990175 1.807514,2.032658 
	C1.905896,9.520117 1.737821,16.960180 1.284873,24.700123 
	C1.000000,17.645748 1.000000,10.291496 1.000000,2.468622 
z"/>
<path fill="#051D48" opacity="1.000000" stroke="none" 
	d="
M635.072937,66.060745 
	C630.042053,88.435066 624.956604,110.797440 620.050415,133.199081 
	C619.448059,135.949310 618.241089,136.653900 615.658325,136.569565 
	C610.670349,136.406693 605.673279,136.522018 600.027161,136.522018 
	C594.585449,112.301643 589.143860,88.081703 583.702271,63.861759 
	C583.487610,63.875420 583.272949,63.889080 583.058289,63.902740 
	C583.058289,87.842422 583.058289,111.782112 583.058289,136.120346 
	C576.597046,136.120346 570.565491,136.120346 564.342957,136.120346 
	C564.342957,104.986526 564.342957,74.054466 564.342957,42.801929 
	C573.732727,42.801929 583.008911,42.801929 593.019836,42.801929 
	C598.409302,66.042450 603.875183,89.612617 609.559937,114.126320 
	C610.514709,111.192032 611.394775,109.040871 611.913757,106.805893 
	C616.574463,86.734047 621.285583,66.672318 625.676758,46.541058 
	C626.422729,43.121002 627.783936,42.336002 630.961853,42.415588 
	C638.764526,42.610992 646.575378,42.479485 654.692444,42.479485 
	C654.692444,73.861229 654.692444,104.920578 654.692444,136.244995 
	C648.835632,136.244995 642.927917,136.244995 636.498291,136.244995 
	C636.498291,113.032410 636.498291,90.093437 636.706177,66.344223 
	C636.914124,63.975933 636.914124,62.417889 636.914124,60.859840 
	C636.656799,60.806427 636.399475,60.753010 636.142090,60.699593 
	C635.785706,62.486645 635.429321,64.273697 635.072937,66.060745 
z"/>
<path fill="#061D48" opacity="1.000000" stroke="none" 
	d="
M806.157227,81.999947 
	C806.167053,69.015396 806.174622,56.530846 806.198364,44.046329 
	C806.198975,43.734833 806.376709,43.423664 806.535950,42.901966 
	C807.235168,42.775330 808.029480,42.502083 808.822144,42.506962 
	C825.128601,42.607327 841.454163,42.285725 857.736206,42.979984 
	C878.084717,43.847630 889.562561,64.334778 879.869385,82.226456 
	C877.792664,86.059601 873.849915,88.881775 870.659119,92.284477 
	C879.237061,95.713913 880.341919,103.960045 880.731140,112.529182 
	C880.874512,115.685371 880.480469,118.897888 880.920715,122.001129 
	C881.563721,126.533302 882.738159,130.990082 883.906616,136.523254 
	C879.987976,136.523254 875.162415,136.523331 870.336914,136.523224 
	C862.045166,136.523071 861.890625,136.536774 861.151855,128.229752 
	C860.607788,122.112732 860.856201,115.917465 860.167175,109.823128 
	C859.375244,102.818878 856.487793,100.257027 849.355835,100.004303 
	C841.732971,99.734177 834.093201,99.943428 825.842773,99.943428 
	C825.842773,106.018982 825.842773,111.943825 825.842773,117.868675 
	C825.842773,123.853157 825.842773,129.837646 825.842773,136.171906 
	C819.369202,136.171906 813.125610,136.171906 806.157227,136.171906 
	C806.157227,118.273445 806.157227,100.386703 806.157227,81.999947 
M842.461731,83.993286 
	C846.277466,83.829933 850.150085,84.022453 853.896362,83.423996 
	C860.322388,82.397446 863.052551,78.902557 863.159241,72.498726 
	C863.286987,64.824150 860.784241,60.363426 854.193359,59.842407 
	C844.852966,59.104042 835.410645,59.655094 826.191528,59.655094 
	C826.191528,67.699829 826.191528,75.755882 826.191528,83.993286 
	C831.517822,83.993286 836.496094,83.993286 842.461731,83.993286 
z"/>
<path fill="#061E49" opacity="1.000000" stroke="none" 
	d="
M728.134644,138.844147 
	C721.528381,137.528259 715.012695,137.111038 709.340820,134.704681 
	C698.456482,130.086807 693.356995,120.558769 693.102234,109.212852 
	C692.609253,87.251328 692.958191,65.270889 692.958191,42.885429 
	C699.081421,42.885429 705.461121,42.885429 712.528137,42.885429 
	C712.528137,44.617859 712.519653,46.382797 712.529419,48.147633 
	C712.634583,67.134789 712.431091,86.130447 712.950500,105.106308 
	C713.350037,119.702255 726.417053,126.823334 739.668091,120.219543 
	C743.890869,118.115074 746.097351,114.489853 746.906372,110.051720 
	C747.470215,106.958466 747.770874,103.775146 747.783630,100.630424 
	C747.861023,81.484169 747.822205,62.337437 747.822205,42.832726 
	C754.632874,42.832726 761.171021,42.832726 767.783386,42.832726 
	C767.783386,64.475883 768.634338,85.991058 767.539795,107.406807 
	C766.482849,128.088181 753.987305,138.568909 733.104736,138.841248 
	C731.605591,138.860794 730.105835,138.844162 728.134644,138.844147 
z"/>
<path fill="#051C47" opacity="1.000000" stroke="none" 
	d="
M324.231079,117.167282 
	C322.075928,123.594101 319.920776,130.020920 317.774261,136.422089 
	C310.929901,136.422089 304.446686,136.422089 297.035126,136.422089 
	C308.232910,104.986038 319.311157,73.885559 330.494965,42.488747 
	C337.267090,42.488747 343.912720,42.381023 350.547821,42.596275 
	C351.635834,42.631573 353.281036,43.873531 353.653259,44.919239 
	C364.392151,75.089203 375.001801,105.305183 385.620209,135.517975 
	C385.661102,135.634323 385.527863,135.811859 385.285828,136.506210 
	C379.237549,136.506210 372.977783,136.651443 366.737518,136.367935 
	C365.656097,136.318817 364.151337,134.636307 363.708282,133.398285 
	C361.864746,128.247177 360.352539,122.977501 358.553589,117.010979 
	C356.533081,111.088753 354.677765,105.906883 352.765747,100.376434 
	C349.062775,88.559990 345.416534,77.092117 341.405060,64.475594 
	C337.316589,77.305748 333.593109,88.990517 329.589844,100.919579 
	C327.617065,106.498337 325.924072,111.832809 324.231079,117.167282 
z"/>
<path fill="#041B47" opacity="1.000000" stroke="none" 
	d="
M424.822174,100.830643 
	C427.641327,100.564911 428.904114,101.084435 428.943237,103.963600 
	C428.994904,107.763481 429.424896,111.621658 430.245178,115.332558 
	C431.429321,120.689651 435.092377,122.887573 441.125977,122.473129 
	C446.575531,122.098816 449.369690,119.654762 450.019470,114.228897 
	C450.413849,110.936035 450.463013,107.588211 450.469208,104.264709 
	C450.506989,83.945923 450.488068,63.627029 450.488068,42.896866 
	C457.077545,42.896866 463.447876,42.896866 470.170349,42.896866 
	C470.170349,56.647736 470.170380,70.293991 470.170349,83.940254 
	C470.170349,92.271423 470.179749,100.602615 470.168457,108.933769 
	C470.140045,129.893417 458.498962,140.524612 437.505920,138.774048 
	C419.079895,137.237549 411.635376,129.021667 410.193512,108.528290 
	C410.022217,106.093452 410.170227,103.636147 410.170227,100.830574 
	C415.087341,100.830574 419.715363,100.830574 424.822174,100.830643 
z"/>
<path fill="#DF0825" opacity="1.000000" stroke="none" 
	d="
M82.843994,42.266335 
	C90.826210,42.309113 98.808426,42.351891 107.150620,42.280525 
	C120.904709,42.166378 134.298828,42.166378 147.927597,42.166378 
	C147.927597,50.832439 147.927597,58.717442 147.927597,67.181892 
	C134.756332,67.181892 121.710686,67.181892 108.170822,67.219727 
	C99.677666,67.187965 91.678734,67.118362 83.204727,67.161072 
	C77.814888,67.236565 72.900131,67.199745 67.523010,67.165695 
	C67.011093,59.295025 66.961540,51.421593 67.453850,43.064400 
	C72.945137,42.475868 77.894569,42.371101 82.843994,42.266335 
z"/>
<path fill="#09204B" opacity="1.000000" stroke="none" 
	d="
M511.437866,42.464073 
	C516.855347,42.464191 521.815735,42.464191 526.927979,42.464191 
	C526.927979,74.005127 526.927979,105.052826 526.927979,136.318237 
	C520.553650,136.318237 514.433350,136.318237 507.876404,136.318237 
	C507.741425,135.108917 507.480255,133.855057 507.479309,132.600998 
	C507.457886,103.968910 507.482635,75.336754 507.436066,46.704720 
	C507.431885,44.127098 507.427887,41.904007 511.437866,42.464073 
z"/>
<path fill="#041B46" opacity="1.000000" stroke="none" 
	d="
M245.012238,59.870434 
	C245.012238,85.266754 245.012238,110.663078 245.012238,136.273285 
	C238.186401,136.273285 231.775055,136.273285 224.997604,136.273285 
	C224.997604,110.964287 224.997604,85.893234 225.354584,60.162270 
	C232.145126,59.625046 238.578674,59.747742 245.012238,59.870434 
z"/>
<path fill="#E0122E" opacity="1.000000" stroke="none" 
	d="
M245.465820,59.745331 
	C238.578674,59.747742 232.145126,59.625046 225.349487,59.685387 
	C215.871002,59.868416 206.754578,59.868416 197.309692,59.868416 
	C197.309692,53.832352 197.309692,48.435669 197.309692,42.729473 
	C222.292816,42.729473 247.338455,42.729473 272.703613,42.729473 
	C272.703613,48.185280 272.703613,53.583214 272.703613,59.620228 
	C263.799438,59.620228 254.859421,59.620228 245.465820,59.745331 
z"/>
<path fill="#DE0B28" opacity="1.000000" stroke="none" 
	d="
M107.169571,2.609107 
	C120.475105,2.098166 133.762939,2.045060 147.518219,2.008537 
	C147.985687,9.988096 147.985687,17.951073 147.985687,26.575193 
	C134.765030,26.575193 121.680313,26.575193 108.110794,26.652393 
	C107.467949,18.842045 107.309906,10.954494 107.169571,2.609107 
z"/>
<path fill="#DC0623" opacity="1.000000" stroke="none" 
	d="
M352.822449,100.725014 
	C354.677765,105.906883 356.533081,111.088753 358.419312,116.687943 
	C347.345825,117.129402 336.241394,117.153557 324.684021,117.172493 
	C325.924072,111.832809 327.617065,106.498337 330.064789,100.996643 
	C338.153809,100.794609 345.488129,100.759811 352.822449,100.725014 
z"/>
<path fill="#DC0724" opacity="1.000000" stroke="none" 
	d="
M968.345642,100.633736 
	C970.237549,105.881645 972.129456,111.129555 973.989319,116.777824 
	C962.970703,117.173256 951.984192,117.168335 940.533325,117.164963 
	C941.704834,111.856018 943.340576,106.545525 945.708496,101.030670 
	C953.742310,100.762123 961.044006,100.697929 968.345642,100.633736 
z"/>
<path fill="#8490A5" opacity="1.000000" stroke="none" 
	d="
M635.318848,65.998032 
	C635.429321,64.273697 635.785706,62.486645 636.142090,60.699593 
	C636.399475,60.753010 636.656799,60.806427 636.914124,60.859840 
	C636.914124,62.417889 636.914124,63.975933 636.711609,65.908249 
	C636.194336,66.166786 635.879578,66.051048 635.318848,65.998032 
z"/>
<path fill="#FAF7F8" opacity="1.000000" stroke="none" 
	d="
M968.256470,100.268051 
	C961.044006,100.697929 953.742310,100.762123 945.928467,100.760681 
	C949.117920,89.260963 952.819458,77.826889 956.521057,66.392815 
	C956.932251,66.411438 957.343445,66.430061 957.754700,66.448692 
	C961.225525,77.599915 964.696411,88.751144 968.256470,100.268051 
z"/>
<path fill="#FAEEF0" opacity="1.000000" stroke="none" 
	d="
M82.851974,41.857533 
	C77.894569,42.371101 72.945137,42.475868 67.532440,42.573822 
	C66.994858,37.510529 66.920547,32.454044 66.898651,26.978836 
	C71.909576,26.533432 76.868103,26.506750 82.274567,26.518093 
	C82.768326,31.520319 82.814133,36.484524 82.851974,41.857533 
z"/>
<path fill="#FEFEFE" opacity="1.000000" stroke="none" 
	d="
M841.968018,83.993286 
	C836.496094,83.993286 831.517822,83.993286 826.191528,83.993286 
	C826.191528,75.755882 826.191528,67.699829 826.191528,59.655094 
	C835.410645,59.655094 844.852966,59.104042 854.193359,59.842407 
	C860.784241,60.363426 863.286987,64.824150 863.159241,72.498726 
	C863.052551,78.902557 860.322388,82.397446 853.896362,83.423996 
	C850.150085,84.022453 846.277466,83.829933 841.968018,83.993286 
z"/>
<path fill="#F9F7F8" opacity="1.000000" stroke="none" 
	d="
M352.765747,100.376434 
	C345.488129,100.759811 338.153809,100.794609 330.344543,100.752350 
	C333.593109,88.990517 337.316589,77.305748 341.405060,64.475594 
	C345.416534,77.092117 349.062775,88.559990 352.765747,100.376434 
z"/>
</svg>