<svg version="1.1" id="Layer_1" xmlns="http://www.w3.org/2000/svg" xmlns:xlink="http://www.w3.org/1999/xlink" x="0px" y="0px"
	 width="100%" viewBox="0 0 1000 150" enable-background="new 0 0 1000 150" xml:space="preserve">
<path fill="#000000" opacity="1.000000" stroke="none" 
	d="
M1001.000000,139.000000 
	C1001.000000,142.998123 1001.000000,146.996246 1001.000000,150.997192 
	C703.308411,151.000000 405.616852,151.000000 107.462639,150.531342 
	C107.023392,123.400414 107.046791,96.738144 107.531975,70.045532 
	C121.202927,70.015198 134.412079,70.015198 147.626953,70.015198 
	C147.626953,61.323391 147.626953,53.303825 147.626953,44.833332 
	C133.837601,44.833332 120.418907,44.833332 107.000198,44.377045 
	C107.035103,38.956001 107.070015,33.991238 107.566895,29.015911 
	C121.244125,29.005342 134.459381,29.005342 147.593170,29.005342 
	C147.593170,20.263889 147.593170,12.237564 147.593170,4.139595 
	C133.745743,4.139595 120.304726,4.139595 106.408234,4.105920 
	C98.135132,4.102798 90.317497,4.133350 82.065437,4.109552 
	C54.754009,4.036801 27.877005,4.018401 1.000000,4.000000 
	C1.000000,3.000375 1.000000,2.000750 1.000000,1.061947 
	C334.333344,1.061947 667.666687,1.061947 1001.000000,1.061947 
	C1001.000000,44.774174 1001.000000,88.424454 1000.665894,132.429962 
	C997.560791,125.711769 994.620361,118.699257 992.050903,111.553368 
	C984.622192,90.893982 977.273315,70.205048 970.073364,49.465115 
	C968.872559,46.006088 966.970215,44.784679 963.466919,44.955761 
	C959.146118,45.166756 954.798645,45.174980 950.478821,44.954674 
	C946.771423,44.765602 944.764771,46.111366 943.485107,49.733585 
	C933.457764,78.117218 923.287354,106.450569 913.066040,134.765091 
	C911.839111,138.164017 913.254761,138.979568 916.200806,138.976685 
	C920.531799,138.972443 924.868591,138.845764 929.191772,139.031723 
	C932.416077,139.170441 934.026001,137.746811 934.956604,134.781662 
	C936.499207,129.866837 938.304688,125.034508 940.463989,120.101112 
	C951.569885,120.018753 962.211243,120.002701 973.021484,120.316879 
	C974.747253,125.188385 976.619995,129.652084 977.760071,134.295670 
	C978.658630,137.955460 980.580933,139.119110 984.082275,139.029831 
	C989.718140,138.886124 995.360413,138.996796 1001.000000,139.000000 
M223.999985,63.083084 
	C223.999985,83.556000 224.000015,104.028923 224.000000,124.501839 
	C223.999985,139.146774 224.001633,138.965134 238.452652,139.097839 
	C243.405212,139.143311 245.143463,137.674530 245.095276,132.572647 
	C244.873688,109.105782 244.999176,85.635635 245.929214,62.033726 
	C254.839828,62.033726 263.750427,62.033726 272.584656,62.033726 
	C272.584656,55.933834 272.584656,50.562405 272.584656,45.260517 
	C246.951324,45.260517 221.734146,45.260517 196.332138,45.260517 
	C196.332138,50.892548 196.332138,56.259422 196.332138,62.166664 
	C205.773438,62.166664 214.886642,62.166664 223.999985,63.083084 
M324.928619,120.035004 
	C335.910980,120.025238 346.893372,120.015472 357.991760,120.775948 
	C359.609436,125.846146 361.146301,130.944717 362.908630,135.964127 
	C363.290710,137.052414 364.455200,138.638214 365.304962,138.667404 
	C371.866760,138.892776 378.439819,138.791550 385.475922,138.791550 
	C385.031616,136.669662 384.906006,135.360748 384.482910,134.156326 
	C378.804108,117.990143 373.113312,101.828026 367.364197,85.686737 
	C363.010956,73.464615 358.492950,61.300594 354.222687,49.049923 
	C353.156982,45.992687 351.346558,44.899914 348.277222,44.982033 
	C343.782104,45.102291 339.272522,45.178551 334.785522,44.950665 
	C331.092316,44.763088 329.124268,46.035122 327.842621,49.699356 
	C319.989441,72.152260 311.892273,94.519806 303.883636,116.918388 
	C301.386414,123.902596 298.911743,130.894867 296.032806,138.991318 
	C302.315460,138.991318 307.580994,138.856216 312.835449,139.038666 
	C316.356812,139.160919 318.413940,137.937363 319.394379,134.410461 
	C320.729584,129.607285 322.446320,124.910172 324.928619,120.035004 
M588.495972,91.955544 
	C591.045227,103.479782 593.378906,115.057037 596.197266,126.515114 
	C599.877258,141.476318 597.342529,138.687698 611.340454,138.996109 
	C612.339355,139.018127 613.344238,138.924164 614.338135,138.996231 
	C617.755249,139.243958 619.438904,137.696198 620.176453,134.317169 
	C623.012329,121.324188 626.059631,108.377434 629.008423,95.408974 
	C631.060791,86.382843 633.080994,77.349403 635.115540,68.319229 
	C636.000000,87.458504 635.860229,106.439835 636.043579,125.418045 
	C636.194702,141.047333 633.117737,138.798920 650.394470,139.007751 
	C653.913025,139.050278 655.019958,137.400574 655.013611,134.120377 
	C654.959290,105.965973 654.953308,77.811363 655.012390,49.656975 
	C655.019653,46.183365 653.497925,44.923904 650.171387,44.985493 
	C644.342712,45.093422 638.510376,44.990116 632.679626,45.005119 
	C625.511841,45.023563 625.590210,45.177673 623.989258,52.291508 
	C619.358093,72.870010 614.556458,93.410126 609.558838,115.106834 
	C608.792542,112.494156 608.271973,110.989632 607.911133,109.447731 
	C603.289062,89.697716 598.568848,69.969124 594.187805,50.165565 
	C593.320068,46.243061 591.604553,44.867016 587.801025,44.964432 
	C581.474609,45.126469 575.134094,45.186169 568.812805,44.942780 
	C564.539062,44.778229 562.912292,46.256805 562.934998,50.673828 
	C563.076233,78.161301 563.064392,105.650124 562.942688,133.137787 
	C562.924133,137.334991 564.150391,139.406250 568.625488,139.036438 
	C571.438293,138.804001 574.305603,138.783340 577.113831,139.042282 
	C581.827271,139.476868 583.103882,137.314774 583.065674,132.897598 
	C582.902832,114.073769 582.998657,95.247704 583.000000,76.422447 
	C583.000122,74.715576 583.000061,73.008713 583.000061,71.301842 
	C583.317871,71.288086 583.635681,71.274338 583.953552,71.260582 
	C585.388306,77.890022 586.823120,84.519455 588.495972,91.955544 
M873.160095,92.308342 
	C874.842957,90.741371 876.921753,89.432777 878.141724,87.563667 
	C884.153748,78.352509 884.987610,68.697754 879.882141,58.761990 
	C874.953979,49.171349 866.802368,45.035275 856.306091,45.011490 
	C841.490479,44.977917 826.674744,44.986874 811.859070,45.008327 
	C805.107849,45.018101 805.010986,45.120529 805.006714,52.114105 
	C804.992004,76.085518 804.851013,100.058182 805.049561,124.027954 
	C805.195740,141.679733 801.957886,138.616913 820.480713,139.041550 
	C824.551697,139.134872 826.145081,137.672943 826.051819,133.539886 
	C825.856506,124.888092 826.131409,116.225891 825.950134,107.573479 
	C825.866028,103.558975 827.214233,101.669411 831.406494,101.981697 
	C837.361938,102.425339 843.335266,102.625023 849.294556,103.023857 
	C855.237244,103.421570 857.861267,105.315941 858.913086,111.200447 
	C859.781982,116.061478 859.615662,121.101799 860.022339,126.053284 
	C860.279541,129.184311 860.585754,132.330353 861.202026,135.403046 
	C861.433472,136.556763 862.573669,138.408600 863.350647,138.434906 
	C870.345154,138.671875 877.351074,138.573425 885.968018,138.573425 
	C879.508057,131.611969 881.587341,124.407074 880.883118,117.620308 
	C880.041931,109.513870 880.749329,100.671791 872.636169,95.114906 
	C872.277710,94.869354 872.652100,93.553749 873.160095,92.308342 
M695.875488,45.048634 
	C691.876404,45.019173 692.008972,47.869507 692.008850,50.612206 
	C692.008240,70.607544 691.797729,90.606125 692.099670,110.596939 
	C692.264771,121.523979 696.394226,130.971954 706.353394,136.461044 
	C717.458069,142.581482 729.563538,143.020905 741.753540,140.518845 
	C757.141174,137.360413 765.816895,129.035110 766.822632,113.085945 
	C768.171936,91.687843 767.714905,70.172150 767.776489,48.706200 
	C767.779968,47.492901 765.579346,45.419682 764.194214,45.222252 
	C760.599243,44.709831 756.868225,45.247864 753.226013,44.947659 
	C748.404602,44.550266 746.862244,46.506168 746.919373,51.265141 
	C747.129517,68.758537 747.070129,86.256561 746.935608,103.751488 
	C746.910400,107.035080 746.410278,110.404205 745.545227,113.574501 
	C743.430847,121.323097 737.085327,124.728432 726.936035,123.950172 
	C719.223938,123.358795 713.803101,118.329330 713.135864,110.670677 
	C712.544861,103.888206 712.134583,97.072983 712.048462,90.267113 
	C711.879761,76.938965 711.910767,63.606472 712.039917,50.277527 
	C712.077087,46.441643 710.699219,44.752090 706.788879,44.973747 
	C703.466919,45.162060 700.126038,45.015888 695.875488,45.048634 
M450.000000,101.482063 
	C449.622894,106.774796 449.592194,112.121979 448.771240,117.344940 
	C447.950409,122.567055 443.723175,125.086731 438.457947,124.265709 
	C432.615845,123.354736 430.622772,121.146767 429.291992,114.173607 
	C428.606720,110.582664 429.032501,105.271049 426.887115,103.840950 
	C424.067413,101.961319 419.209167,103.137665 415.227295,103.006500 
	C414.728424,102.990067 414.225800,103.048508 413.729065,103.013542 
	C410.328857,102.774147 408.565948,104.367096 409.065430,107.735558 
	C409.891174,113.304092 410.651489,118.919128 412.049408,124.357765 
	C414.384338,133.441711 420.585297,138.793793 429.705780,140.605591 
	C432.618011,141.184113 435.657990,141.169403 438.644928,141.313858 
	C457.816956,142.241043 470.073212,133.091309 470.011017,112.876839 
	C469.955688,94.891327 470.120056,76.904449 469.964233,58.920116 
	C469.824310,42.770023 472.515808,45.358295 455.954681,44.934708 
	C451.342957,44.816761 449.878113,46.518074 449.929504,51.027664 
	C450.117401,67.512383 450.001495,84.000572 450.000000,101.482063 
M525.729431,45.678619 
	C522.435791,45.452446 519.143738,45.063431 515.848206,45.031540 
	C507.009705,44.946011 507.002655,45.006725 507.001373,53.614849 
	C506.997772,77.577896 506.903900,101.541473 507.034332,125.503815 
	C507.119080,141.080505 504.737274,138.627533 520.450317,139.080765 
	C525.408691,139.223785 527.133972,137.678345 527.094666,132.576172 
	C526.887268,105.619339 527.010376,78.660042 526.970032,51.701675 
	C526.967285,49.902630 526.561707,48.104191 525.729431,45.678619 
z"/>
<path fill="#021B45" opacity="1.000000" stroke="none" 
	d="
M1001.000000,138.571533 
	C995.360413,138.996796 989.718140,138.886124 984.082275,139.029831 
	C980.580933,139.119110 978.658630,137.955460 977.760071,134.295670 
	C976.619995,129.652084 974.747253,125.188385 973.080261,119.913162 
	C970.980042,113.730316 968.990051,108.281441 966.968262,102.453369 
	C963.749695,91.554092 960.562866,81.034019 957.376038,70.513947 
	C956.825623,70.478256 956.275269,70.442566 955.724915,70.406883 
	C952.483276,81.215446 949.241638,92.024017 945.633423,102.922287 
	C943.219116,107.866508 941.109009,112.696724 939.198792,117.604767 
	C938.945129,118.256401 939.707520,119.303490 939.999390,120.167435 
	C938.304688,125.034508 936.499207,129.866837 934.956604,134.781662 
	C934.026001,137.746811 932.416077,139.170441 929.191772,139.031723 
	C924.868591,138.845764 920.531799,138.972443 916.200806,138.976685 
	C913.254761,138.979568 911.839111,138.164017 913.066040,134.765091 
	C923.287354,106.450569 933.457764,78.117218 943.485107,49.733585 
	C944.764771,46.111366 946.771423,44.765602 950.478821,44.954674 
	C954.798645,45.174980 959.146118,45.166756 963.466919,44.955761 
	C966.970215,44.784679 968.872559,46.006088 970.073364,49.465115 
	C977.273315,70.205048 984.622192,90.893982 992.050903,111.553368 
	C994.620361,118.699257 997.560791,125.711769 1000.665894,132.892593 
	C1001.000000,134.714355 1001.000000,136.428711 1001.000000,138.571533 
z"/>
<path fill="#000000" opacity="1.000000" stroke="none" 
	d="
M41.000000,151.000000 
	C27.715055,151.000000 14.430112,151.000000 1.000000,151.000000 
	C1.000000,124.312599 1.000000,97.624962 1.468657,70.468658 
	C14.946115,70.037224 27.954918,70.074440 40.972229,70.573242 
	C40.987164,97.689888 40.993584,124.344940 41.000000,151.000000 
z"/>
<path fill="#021B45" opacity="1.000000" stroke="none" 
	d="
M41.468651,151.000000 
	C40.993584,124.344940 40.987164,97.689888 41.273979,70.265259 
	C41.367237,61.289520 41.167255,53.083359 40.975578,44.418747 
	C40.987183,39.025673 40.990475,34.091053 41.458504,29.088886 
	C50.284237,29.066370 58.645237,29.111401 67.004654,29.612946 
	C67.012947,35.005375 67.022835,39.941284 66.720108,45.175728 
	C66.617142,53.686726 66.826790,61.899200 67.027893,70.573257 
	C67.012901,97.689896 67.006454,124.344948 67.000000,151.000000 
	C58.645767,151.000000 50.291534,151.000000 41.468651,151.000000 
z"/>
<path fill="#DF0623" opacity="1.000000" stroke="none" 
	d="
M67.006241,29.156431 
	C58.645237,29.111401 50.284237,29.066370 40.994011,29.026495 
	C27.043190,29.021101 14.021595,29.010550 1.000000,29.000000 
	C1.000000,20.979099 1.000000,12.958199 1.000000,4.468649 
	C27.877005,4.018401 54.754009,4.036801 82.067261,4.567541 
	C82.312004,13.078571 82.120491,21.077263 81.469452,29.045620 
	C76.342026,29.062336 71.674133,29.109385 67.006241,29.156431 
z"/>
<path fill="#021B45" opacity="1.000000" stroke="none" 
	d="
M107.070183,70.075882 
	C107.046791,96.738144 107.023392,123.400414 107.000000,150.531342 
	C98.979103,151.000000 90.958199,151.000000 82.468651,150.531342 
	C81.981903,123.406708 81.963814,96.750725 82.389824,69.915833 
	C90.912674,69.849899 98.991432,69.962891 107.070183,70.075882 
z"/>
<path fill="#000000" opacity="1.000000" stroke="none" 
	d="
M81.945724,70.094749 
	C81.963814,96.750725 81.981903,123.406708 82.000000,150.531342 
	C77.310745,151.000000 72.621490,151.000000 67.466118,151.000000 
	C67.006454,124.344948 67.012901,97.689896 67.488815,70.528687 
	C72.620766,70.046608 77.283241,70.070679 81.945724,70.094749 
z"/>
<path fill="#DF0623" opacity="1.000000" stroke="none" 
	d="
M40.967274,44.877197 
	C41.167255,53.083359 41.367237,61.289520 41.265465,69.803665 
	C27.954918,70.074440 14.946115,70.037224 1.468657,70.000000 
	C1.000000,61.979099 1.000000,53.958202 1.468657,45.468651 
	C14.947301,44.959068 27.957287,44.918133 40.967274,44.877197 
z"/>
<path fill="#000000" opacity="1.000000" stroke="none" 
	d="
M40.975578,44.418747 
	C27.957287,44.918133 14.947301,44.959068 1.468657,45.000000 
	C1.000000,39.977909 1.000000,34.955814 1.000000,29.466862 
	C14.021595,29.010550 27.043190,29.021101 40.529278,29.094040 
	C40.990475,34.091053 40.987183,39.025673 40.975578,44.418747 
z"/>
<path fill="#021B45" opacity="1.000000" stroke="none" 
	d="
M588.376953,91.552216 
	C586.823120,84.519455 585.388306,77.890022 583.953552,71.260582 
	C583.635681,71.274338 583.317871,71.288086 583.000061,71.301842 
	C583.000061,73.008713 583.000122,74.715576 583.000000,76.422447 
	C582.998657,95.247704 582.902832,114.073769 583.065674,132.897598 
	C583.103882,137.314774 581.827271,139.476868 577.113831,139.042282 
	C574.305603,138.783340 571.438293,138.804001 568.625488,139.036438 
	C564.150391,139.406250 562.924133,137.334991 562.942688,133.137787 
	C563.064392,105.650124 563.076233,78.161301 562.934998,50.673828 
	C562.912292,46.256805 564.539062,44.778229 568.812805,44.942780 
	C575.134094,45.186169 581.474609,45.126469 587.801025,44.964432 
	C591.604553,44.867016 593.320068,46.243061 594.187805,50.165565 
	C598.568848,69.969124 603.289062,89.697716 607.911133,109.447731 
	C608.271973,110.989632 608.792542,112.494156 609.558838,115.106834 
	C614.556458,93.410126 619.358093,72.870010 623.989258,52.291508 
	C625.590210,45.177673 625.511841,45.023563 632.679626,45.005119 
	C638.510376,44.990116 644.342712,45.093422 650.171387,44.985493 
	C653.497925,44.923904 655.019653,46.183365 655.012390,49.656975 
	C654.953308,77.811363 654.959290,105.965973 655.013611,134.120377 
	C655.019958,137.400574 653.913025,139.050278 650.394470,139.007751 
	C633.117737,138.798920 636.194702,141.047333 636.043579,125.418045 
	C635.860229,106.439835 636.000000,87.458504 635.115540,68.319229 
	C633.080994,77.349403 631.060791,86.382843 629.008423,95.408974 
	C626.059631,108.377434 623.012329,121.324188 620.176453,134.317169 
	C619.438904,137.696198 617.755249,139.243958 614.338135,138.996231 
	C613.344238,138.924164 612.339355,139.018127 611.340454,138.996109 
	C597.342529,138.687698 599.877258,141.476318 596.197266,126.515114 
	C593.378906,115.057037 591.045227,103.479782 588.376953,91.552216 
z"/>
<path fill="#021B45" opacity="1.000000" stroke="none" 
	d="
M872.922607,92.522461 
	C872.652100,93.553749 872.277710,94.869354 872.636169,95.114906 
	C880.749329,100.671791 880.041931,109.513870 880.883118,117.620308 
	C881.587341,124.407074 879.508057,131.611969 885.968018,138.573425 
	C877.351074,138.573425 870.345154,138.671875 863.350647,138.434906 
	C862.573669,138.408600 861.433472,136.556763 861.202026,135.403046 
	C860.585754,132.330353 860.279541,129.184311 860.022339,126.053284 
	C859.615662,121.101799 859.781982,116.061478 858.913086,111.200447 
	C857.861267,105.315941 855.237244,103.421570 849.294556,103.023857 
	C843.335266,102.625023 837.361938,102.425339 831.406494,101.981697 
	C827.214233,101.669411 825.866028,103.558975 825.950134,107.573479 
	C826.131409,116.225891 825.856506,124.888092 826.051819,133.539886 
	C826.145081,137.672943 824.551697,139.134872 820.480713,139.041550 
	C801.957886,138.616913 805.195740,141.679733 805.049561,124.027954 
	C804.851013,100.058182 804.992004,76.085518 805.006714,52.114105 
	C805.010986,45.120529 805.107849,45.018101 811.859070,45.008327 
	C826.674744,44.986874 841.490479,44.977917 856.306091,45.011490 
	C866.802368,45.035275 874.953979,49.171349 879.882141,58.761990 
	C884.987610,68.697754 884.153748,78.352509 878.141724,87.563667 
	C876.921753,89.432777 874.842957,90.741371 872.922607,92.522461 
M861.946960,77.021088 
	C862.087097,66.775787 859.376587,62.602962 851.492859,62.160599 
	C844.381165,61.761555 837.230469,62.084839 830.097473,62.026081 
	C827.091553,62.001320 825.986694,63.535595 826.016968,66.359833 
	C826.071899,71.502159 826.076904,76.645912 826.020996,81.788185 
	C825.989136,84.716568 827.341553,86.007690 830.245544,85.979523 
	C837.046570,85.913521 843.864929,86.212509 850.644470,85.817726 
	C855.789490,85.518105 860.463013,83.787369 861.946960,77.021088 
z"/>
<path fill="#021B45" opacity="1.000000" stroke="none" 
	d="
M696.334473,45.033173 
	C700.126038,45.015888 703.466919,45.162060 706.788879,44.973747 
	C710.699219,44.752090 712.077087,46.441643 712.039917,50.277527 
	C711.910767,63.606472 711.879761,76.938965 712.048462,90.267113 
	C712.134583,97.072983 712.544861,103.888206 713.135864,110.670677 
	C713.803101,118.329330 719.223938,123.358795 726.936035,123.950172 
	C737.085327,124.728432 743.430847,121.323097 745.545227,113.574501 
	C746.410278,110.404205 746.910400,107.035080 746.935608,103.751488 
	C747.070129,86.256561 747.129517,68.758537 746.919373,51.265141 
	C746.862244,46.506168 748.404602,44.550266 753.226013,44.947659 
	C756.868225,45.247864 760.599243,44.709831 764.194214,45.222252 
	C765.579346,45.419682 767.779968,47.492901 767.776489,48.706200 
	C767.714905,70.172150 768.171936,91.687843 766.822632,113.085945 
	C765.816895,129.035110 757.141174,137.360413 741.753540,140.518845 
	C729.563538,143.020905 717.458069,142.581482 706.353394,136.461044 
	C696.394226,130.971954 692.264771,121.523979 692.099670,110.596939 
	C691.797729,90.606125 692.008240,70.607544 692.008850,50.612206 
	C692.008972,47.869507 691.876404,45.019173 696.334473,45.033173 
z"/>
<path fill="#021B45" opacity="1.000000" stroke="none" 
	d="
M323.999451,120.167572 
	C322.446320,124.910172 320.729584,129.607285 319.394379,134.410461 
	C318.413940,137.937363 316.356812,139.160919 312.835449,139.038666 
	C307.580994,138.856216 302.315460,138.991318 296.032806,138.991318 
	C298.911743,130.894867 301.386414,123.902596 303.883636,116.918388 
	C311.892273,94.519806 319.989441,72.152260 327.842621,49.699356 
	C329.124268,46.035122 331.092316,44.763088 334.785522,44.950665 
	C339.272522,45.178551 343.782104,45.102291 348.277222,44.982033 
	C351.346558,44.899914 353.156982,45.992687 354.222687,49.049923 
	C358.492950,61.300594 363.010956,73.464615 367.364197,85.686737 
	C373.113312,101.828026 378.804108,117.990143 384.482910,134.156326 
	C384.906006,135.360748 385.031616,136.669662 385.475922,138.791550 
	C378.439819,138.791550 371.866760,138.892776 365.304962,138.667404 
	C364.455200,138.638214 363.290710,137.052414 362.908630,135.964127 
	C361.146301,130.944717 359.609436,125.846146 357.978271,120.006927 
	C355.926514,113.829063 353.888275,108.420212 351.741547,102.662857 
	C348.306732,91.853798 344.980408,81.393234 341.654053,70.932678 
	C341.122589,70.917351 340.591095,70.902031 340.059631,70.886703 
	C336.709686,81.539612 333.359772,92.192520 329.638428,102.943985 
	C327.982056,106.087906 326.476624,109.063286 325.481201,112.200508 
	C324.670502,114.755684 324.470337,117.504570 323.999451,120.167572 
z"/>
<path fill="#021B45" opacity="1.000000" stroke="none" 
	d="
M450.000000,100.984756 
	C450.001495,84.000572 450.117401,67.512383 449.929504,51.027664 
	C449.878113,46.518074 451.342957,44.816761 455.954681,44.934708 
	C472.515808,45.358295 469.824310,42.770023 469.964233,58.920116 
	C470.120056,76.904449 469.955688,94.891327 470.011017,112.876839 
	C470.073212,133.091309 457.816956,142.241043 438.644928,141.313858 
	C435.657990,141.169403 432.618011,141.184113 429.705780,140.605591 
	C420.585297,138.793793 414.384338,133.441711 412.049408,124.357765 
	C410.651489,118.919128 409.891174,113.304092 409.065430,107.735558 
	C408.565948,104.367096 410.328857,102.774147 413.729065,103.013542 
	C414.225800,103.048508 414.728424,102.990067 415.227295,103.006500 
	C419.209167,103.137665 424.067413,101.961319 426.887115,103.840950 
	C429.032501,105.271049 428.606720,110.582664 429.291992,114.173607 
	C430.622772,121.146767 432.615845,123.354736 438.457947,124.265709 
	C443.723175,125.086731 447.950409,122.567055 448.771240,117.344940 
	C449.592194,112.121979 449.622894,106.774796 450.000000,100.984756 
z"/>
<path fill="#DF0623" opacity="1.000000" stroke="none" 
	d="
M82.389824,69.915833 
	C77.283241,70.070679 72.620766,70.046608 67.497360,70.067108 
	C66.826790,61.899200 66.617142,53.686726 67.181213,45.224724 
	C72.636604,44.927906 77.318268,44.880623 82.464439,44.899681 
	C90.952705,44.921795 98.976456,44.877563 107.000206,44.833328 
	C120.418907,44.833332 133.837601,44.833332 147.626953,44.833332 
	C147.626953,53.303825 147.626953,61.323391 147.626953,70.015198 
	C134.412079,70.015198 121.202927,70.015198 107.531975,70.045540 
	C98.991432,69.962891 90.912674,69.849899 82.389824,69.915833 
z"/>
<path fill="#021B45" opacity="1.000000" stroke="none" 
	d="
M526.036438,45.992043 
	C526.561707,48.104191 526.967285,49.902630 526.970032,51.701675 
	C527.010376,78.660042 526.887268,105.619339 527.094666,132.576172 
	C527.133972,137.678345 525.408691,139.223785 520.450317,139.080765 
	C504.737274,138.627533 507.119080,141.080505 507.034332,125.503815 
	C506.903900,101.541473 506.997772,77.577896 507.001373,53.614849 
	C507.002655,45.006725 507.009705,44.946011 515.848206,45.031540 
	C519.143738,45.063431 522.435791,45.452446 526.036438,45.992043 
z"/>
<path fill="#021B45" opacity="1.000000" stroke="none" 
	d="
M245.000137,62.166664 
	C244.999176,85.635635 244.873688,109.105782 245.095276,132.572647 
	C245.143463,137.674530 243.405212,139.143311 238.452652,139.097839 
	C224.001633,138.965134 223.999985,139.146774 224.000000,124.501839 
	C224.000015,104.028923 223.999985,83.556000 224.464325,62.558529 
	C231.619171,62.078205 238.309647,62.122437 245.000137,62.166664 
z"/>
<path fill="#DF0623" opacity="1.000000" stroke="none" 
	d="
M245.464676,62.100197 
	C238.309647,62.122437 231.619171,62.078205 224.464264,62.100319 
	C214.886642,62.166664 205.773438,62.166664 196.332138,62.166664 
	C196.332138,56.259422 196.332138,50.892548 196.332138,45.260517 
	C221.734146,45.260517 246.951324,45.260517 272.584656,45.260517 
	C272.584656,50.562405 272.584656,55.933834 272.584656,62.033726 
	C263.750427,62.033726 254.839828,62.033726 245.464676,62.100197 
z"/>
<path fill="#DF0623" opacity="1.000000" stroke="none" 
	d="
M106.863708,4.139595 
	C120.304726,4.139595 133.745743,4.139595 147.593170,4.139595 
	C147.593170,12.237564 147.593170,20.263889 147.593170,29.005342 
	C134.459381,29.005342 121.244125,29.005342 107.464600,28.553455 
	C106.888123,20.114244 106.875916,12.126920 106.863708,4.139595 
z"/>
<path fill="#021B45" opacity="1.000000" stroke="none" 
	d="
M106.408234,4.105920 
	C106.875916,12.126920 106.888123,20.114244 107.002625,28.564022 
	C107.070015,33.991238 107.035103,38.956001 107.000198,44.377045 
	C98.976456,44.877563 90.952705,44.921795 82.464439,44.443611 
	C81.976273,38.972786 81.952621,34.024368 81.928986,29.075954 
	C82.120491,21.077263 82.312004,13.078571 82.501694,4.621891 
	C90.317497,4.133350 98.135132,4.102798 106.408234,4.105920 
z"/>
<path fill="#DE0623" opacity="1.000000" stroke="none" 
	d="
M351.850037,103.011368 
	C353.888275,108.420212 355.926514,113.829063 357.920258,119.621803 
	C346.893372,120.015472 335.910980,120.025238 324.464050,120.101288 
	C324.470337,117.504570 324.670502,114.755684 325.481201,112.200508 
	C326.476624,109.063286 327.982056,106.087906 330.102661,103.005104 
	C337.908875,102.982224 344.879456,102.996796 351.850037,103.011368 
z"/>
<path fill="#DE0623" opacity="1.000000" stroke="none" 
	d="
M940.463989,120.101120 
	C939.707520,119.303490 938.945129,118.256401 939.198792,117.604767 
	C941.109009,112.696724 943.219116,107.866508 946.097778,102.988586 
	C953.619202,102.920982 960.309631,102.876778 967.000000,102.832565 
	C968.990051,108.281441 970.980042,113.730316 972.911255,119.582924 
	C962.211243,120.002701 951.569885,120.018753 940.463989,120.101120 
z"/>
<path fill="#000000" opacity="1.000000" stroke="none" 
	d="
M966.968262,102.453369 
	C960.309631,102.876778 953.619202,102.920982 946.464417,102.898888 
	C949.241638,92.024017 952.483276,81.215446 955.724915,70.406883 
	C956.275269,70.442566 956.825623,70.478256 957.376038,70.513947 
	C960.562866,81.034019 963.749695,91.554092 966.968262,102.453369 
z"/>
<path fill="#000000" opacity="1.000000" stroke="none" 
	d="
M81.469452,29.045620 
	C81.952621,34.024368 81.976273,38.972786 81.999924,44.377266 
	C77.318268,44.880623 72.636604,44.927906 67.493835,44.926193 
	C67.022835,39.941284 67.012947,35.005375 67.004654,29.612946 
	C71.674133,29.109385 76.342026,29.062336 81.469452,29.045620 
z"/>
<path fill="#000000" opacity="1.000000" stroke="none" 
	d="
M861.914124,77.440292 
	C860.463013,83.787369 855.789490,85.518105 850.644470,85.817726 
	C843.864929,86.212509 837.046570,85.913521 830.245544,85.979523 
	C827.341553,86.007690 825.989136,84.716568 826.020996,81.788185 
	C826.076904,76.645912 826.071899,71.502159 826.016968,66.359833 
	C825.986694,63.535595 827.091553,62.001320 830.097473,62.026081 
	C837.230469,62.084839 844.381165,61.761555 851.492859,62.160599 
	C859.376587,62.602962 862.087097,66.775787 861.914124,77.440292 
z"/>
<path fill="#000000" opacity="1.000000" stroke="none" 
	d="
M351.741516,102.662857 
	C344.879456,102.996796 337.908875,102.982224 330.474060,102.906540 
	C333.359772,92.192520 336.709686,81.539612 340.059631,70.886703 
	C340.591095,70.902031 341.122589,70.917351 341.654053,70.932678 
	C344.980408,81.393234 348.306732,91.853798 351.741516,102.662857 
z"/>
</svg>