<?xml version="1.0" encoding="UTF-8"?><svg id="_イヤー_1" xmlns="http://www.w3.org/2000/svg" viewBox="0 0 534.57 534.57"><g><rect x="37.57" y="178.29" width="178" height="178" transform="translate(-151.93 167.79) rotate(-45)"/><path d="M126.57,142.13l125.16,125.16-125.16,125.16L1.41,267.29l125.16-125.16m0-1.41L0,267.29l126.57,126.57,126.57-126.57-126.57-126.57h0Z"/></g><g><rect x="178.29" y="37.57" width="178" height="178" transform="translate(-11.21 226.07) rotate(-45)"/><path d="M267.29,1.41l125.16,125.16-125.16,125.16-125.16-125.16L267.29,1.41m0-1.41l-126.57,126.57,126.57,126.57,126.57-126.57L267.29,0h0Z"/></g><g><rect x="178.29" y="319" width="178" height="178" transform="translate(-210.21 308.5) rotate(-45)"/><path d="M267.29,282.84l125.16,125.16-125.16,125.16-125.16-125.16,125.16-125.16m0-1.41l-126.57,126.57,126.57,126.57,126.57-126.57-126.57-126.57h0Z"/></g><g><rect x="319" y="178.29" width="178" height="178" transform="translate(-69.5 366.79) rotate(-45)"/><path d="M408,142.13l125.16,125.16-125.16,125.16-125.16-125.16,125.16-125.16m0-1.41l-126.57,126.57,126.57,126.57,126.57-126.57-126.57-126.57h0Z"/></g></svg>